<?xml version="1.0" encoding="utf-8"?>
<!-- Generator: Adobe Illustrator 24.0.3, SVG Export Plug-In . SVG Version: 6.00 Build 0) -->
<svg version="1.1" id="Layer_8_copy" xmlns="http://www.w3.org/2000/svg" xmlns:xlink="http://www.w3.org/1999/xlink" x="0px"
y="0px" viewBox="0 0 290 301.6" style="enable-background:new 0 0 290 301.6;" xml:space="preserve">
<style type="text/css">
.st0{fill:url(#SVGID_1_);stroke:#231F20;stroke-width:2;stroke-miterlimit:10;}
.st1{fill:#262262;stroke:#231F20;stroke-miterlimit:10;}
.st2{fill:#00A651;stroke:#231F20;stroke-miterlimit:10;}
.st3{fill:#1C75BC;stroke:#231F20;stroke-miterlimit:10;}
.st4{fill:#8DC63F;stroke:#00A651;stroke-miterlimit:10;}
.st5{fill:#8DC63F;stroke:#00A651;stroke-width:5;stroke-miterlimit:10;}
.st6{fill:#2BB673;stroke:#231F20;stroke-miterlimit:10;}
.st7{fill:#FFFFFF;}
.st8{font-family:‘Arial-BoldMT’;}
.st9{font-size:63.7436px;}
.st10{font-size:27.735px;}
.st11{font-size:18.2608px;}
.st12{font-size:25.0466px;}
.st13{fill:#00AEEF;}
.st14{font-size:24px;}
.st15{fill:#00AEEF;stroke:#231F20;stroke-miterlimit:10;}
.st16{fill:#00A79D;stroke:#231F20;stroke-miterlimit:10;}
</style>
<linearGradient id="SVGID_1_" gradientUnits="userSpaceOnUse" x1="145" y1="3.44" x2="145" y2="303" gradientTransform="matrix(1 0 0 -1 0 304)">
<stop offset="0" style="stop-color:#3188C9"/>
<stop offset="0.87" style="stop-color:#382163"/>
</linearGradient>
<path class="st0" d="M11,1h268c5.5,0,10,4.5,10,10v279.6c0,5.5-4.5,10-10,10H11c-5.5,0-10-4.5-10-10V11C1,5.5,5.5,1,11,1z"/>
<path class="st1" d="M101.5,183.3h86.6c5,0,9,4,9,9v86.7c0,5-4,9-9,9h-86.6c-5,0-9-4-9-9v-86.7C92.5,187.3,96.5,183.3,101.5,183.3z"
/>
<path class="st2" d="M12.9,34.5h34c3.9,0,7,3.1,7,7v36.8c0,3.9-3.1,7-7,7h-34c-3.9,0-7-3.1-7-7V41.5C5.9,37.7,9,34.5,12.9,34.5z"/>
<path class="st3" d="M20.4,88.1h26.5c3.9,0,7,3.1,7,7v26.5c0,3.9-3.1,7-7,7H20.4c-3.9,0-7-3.1-7-7V95.1
C13.4,91.3,16.6,88.1,20.4,88.1z"/>
<path class="st3" d="M20.1,131.4h26.5c3.9,0,7,3.1,7,7v26.5c0,3.9-3.1,7-7,7H20.1c-3.9,0-7-3.1-7-7v-26.5
C13.1,134.5,16.2,131.4,20.1,131.4z"/>
<path class="st3" d="M65.3,44.9h26.5c3.9,0,7,3.1,7,7v26.5c0,3.9-3.1,7-7,7H65.3c-3.9,0-7-3.1-7-7V51.9C58.3,48,61.4,44.9,65.3,44.9
z"/>
<path class="st3" d="M65.3,88.1h26.5c3.9,0,7,3.1,7,7v26.5c0,3.9-3.1,7-7,7H65.3c-3.9,0-7-3.1-7-7V95.1
C58.3,91.3,61.4,88.1,65.3,88.1z"/>
<path class="st3" d="M65,131.4h26.5c3.9,0,7,3.1,7,7v26.5c0,3.9-3.1,7-7,7H65c-3.9,0-7-3.1-7-7v-26.5C58,134.5,61.1,131.4,65,131.4z
"/>
<path class="st4" d="M29.9,46.5c-9.1,0-16.5,7.4-16.5,16.5s7.4,16.5,16.5,16.5S46.4,72.1,46.4,63l0,0C46.4,53.9,39,46.5,29.9,46.5z
M29.9,75.7c-7,0-12.7-5.7-12.7-12.7c0-7,5.7-12.7,12.7-12.7c7,0,12.7,5.7,12.7,12.7C42.6,70,36.9,75.7,29.9,75.7
C29.9,75.7,29.9,75.7,29.9,75.7z"/>
<rect x="26" y="40.4" class="st5" width="7.8" height="22.6"/>
<polygon class="st6" points="35.7,239.1 58.3,221.2 80.9,203.4 80.9,239.1 80.9,274.9 58.3,257 "/>
<polygon class="st6" points="254.9,239.1 232.3,221.2 209.7,203.4 209.7,239.1 209.7,274.9 232.3,257 "/>
<text transform="matrix(1 0 0 1 95.47 258.29)" class="st7 st8 st9">70</text>
<text transform="matrix(1 0 0 1 178.85 232.51)" class="st7 st8 st10">0</text>
<path class="st7" d="M47.5,154.6V149h-4.2c-0.2-0.9-0.6-1.9-1.1-2.7l3-3l-4-3.9l-3,3c-0.8-0.5-1.8-0.9-2.7-1.1V137h-5.6v4.2
c-0.9,0.3-1.9,0.6-2.7,1.1l-3-3l-3.9,3.9l3,3c-0.5,0.8-0.9,1.8-1.1,2.7H18v5.6h4.2c0.2,0.9,0.6,1.8,1.1,2.7l-3,3l3.9,3.9l3-3
c0.8,0.5,1.8,0.9,2.7,1.1v4.2h5.6v-4.2c0.9-0.2,1.9-0.6,2.7-1.1l3,3l4-3.9l-3-3c0.5-0.8,0.9-1.7,1.1-2.7H47.5z M32.8,158.3
c-3.6,0-6.5-2.9-6.5-6.5s2.9-6.5,6.5-6.5c3.6,0,6.5,2.9,6.5,6.5S36.4,158.3,32.8,158.3L32.8,158.3z"/>
<text transform="matrix(1 0 0 1 16.04 115.4)" class="st7 st8 st11">Low</text>
<text transform="matrix(1 0 0 1 60.82 115.4)" class="st7 st8 st11">Max</text>
<text transform="matrix(1 0 0 1 61.82 74.21)" class="st7 st8 st12">AC</text>
<text transform="matrix(1 0 0 1 13.11 25.72)" class="st13 st8 st14">Climate</text>
<!-- <text transform="matrix(1 0 0 1 73.66 25.72)" class="st13 st8 st14">t</text> -->
<!-- <text transform="matrix(1 0 0 1 85.71 25.72)" class="st13 st8 st14">e </text> -->
<!-- <text transform="matrix(1 0 0 1 109.16 25.72)" class="st13 st8 st14">C</text> -->
<text transform="matrix(1 0 0 1 124.71 25.72)" class="st13 st8 st14">Control</text>
<ellipse class="st15" cx="248.3" cy="36.2" rx="16.6" ry="16.6"/>
<path class="st15" d="M244.1,57.6l-8.3-3.9c-4.3-2-9.4-0.2-11.4,4.1L202.7,104h-37.6c-4.2,0-7.7,3-8.5,7.1l-19,40.6
c-2,4.3-0.1,9.4,4.1,11.4c0,0,0,0,0,0l8.3,3.9c4.3,2,9.4,0.2,11.4-4.1l15.2-32.5h37.7c4.3,0,7.9-3.2,8.5-7.4L248.2,69
C250.2,64.7,248.4,59.6,244.1,57.6C244.1,57.6,244.1,57.6,244.1,57.6z"/>
<path class="st16" d="M265.3,128.4c-2.6-5-9.6-6.7-14.4-7.3v-5.4l-10.2,5.9l-10.2,5.9l10.2,5.9l10.2,5.9v-5.9
c2.9-0.9,6.4-1.5,7.8-0.2c3.5,3.1-4.2,15.1-4.2,15.1S269.5,136.4,265.3,128.4z"/>
<path class="st16" d="M129,86.8c2.6-5,9.6-6.7,14.4-7.3v-5.4l10.2,5.9l10.2,5.8l-10.2,5.9l-10.2,5.9v-5.9c-2.9-0.9-6.4-1.5-7.8-0.2
c-3.5,3.1,4.2,15.1,4.2,15.1S124.8,94.7,129,86.8z"/>
<path class="st16" d="M180.2,46.7c2.6-5,9.6-6.7,14.4-7.3V34l10.2,5.8l10.2,5.9l-10.2,5.9l-10.2,5.9v-5.9c-2.9-0.9-6.4-1.5-7.8-0.2
c-3.5,3.1,4.2,15.1,4.2,15.1S176,54.6,180.2,46.7z"/>
<path class="st7" d="M91.7,155.1c-0.3-0.6-0.6-1.3-1-1.8c0,0-7.6-1.7-10.8-1.4c0-0.6-0.3-1.2-0.7-1.6c2.9-1.6,6.3-1.9,9.5-0.9
c2.5-1.9,3.8-4.9,2.9-7.6c-1.2-3.6-5.7-5.4-10.1-3.9c-0.7,0.2-1.3,0.5-1.9,0.9c0,0-2.3,7.7-2.1,10.8l0,0c-0.5,0-1,0.2-1.4,0.4
c-1.2-3-1.2-6.4,0.1-9.4c-1.7-2.7-4.5-4.2-7.3-3.6c-3.7,0.9-5.9,5.2-4.8,9.7c0.2,0.7,0.4,1.4,0.7,2c0,0,7.2,2.9,10.4,3.1
c0,0.1,0,0.1,0,0.2c0,0.5,0.1,1,0.4,1.4c-2.8,1.1-5.9,1.2-8.8,0.2c-2.6,1.9-3.9,4.8-3.1,7.5c1.1,3.6,5.5,5.6,10,4.3
c0.7-0.2,1.3-0.5,1.9-0.8c0,0,2.3-6.8,2.5-10.2c0.5-0.1,0.9-0.3,1.3-0.6c1.7,2.8,2.3,6.1,1.5,9.3c2.1,2.4,5.2,3.4,7.8,2.4
C92,164.1,93.5,159.4,91.7,155.1z"/>
</svg>