<svg id="Layer_2" data-name="Layer 2" xmlns="http://www.w3.org/2000/svg" viewBox="0 0 694.18 445.44"><defs><style>.cls-1,.cls-3{fill:#53504f;}.cls-1{stroke:#000;}.cls-1,.cls-2,.cls-3,.cls-4,.cls-5,.cls-6,.cls-7,.cls-8{stroke-miterlimit:10;}.cls-2{fill:#7f7c7c;}.cls-2,.cls-3,.cls-4,.cls-5,.cls-6,.cls-7,.cls-8{stroke:#231f20;}.cls-4{fill:#29332b;}.cls-5{fill:none;}.cls-6{fill:#1f2621;}.cls-7{fill:#d8d8db;}.cls-8{fill:#fff;}</style></defs><path class="cls-1" d="M80.85,254.48,97,323.66s71.23,7.19,92.33,20.82c20.73,13.37,49.07,40.11,70.71,109s31.63,77.66,31.63,77.66H552.92s10-8.77,31.63-77.66,50-95.63,70.7-109c21.1-13.63,92.33-20.82,92.33-20.82l16.15-69.18" transform="translate(-75.2 -86.21)"/><path class="cls-2" d="M557.47,507.14s5.11-94,7.78-119,9.92-29,9.92-29c64.25-66.85,64.18-66.6,89.41-82.33,25.67-16,89.34-16.67,89.34-16.67,14.33-2,14.66-22.33,14.66-22.33s.67-70.67,0-75-24.5-9-24.5-9c-37.5-7.33-48.5-53-126.5-61-42.21-4.33-107.08-5.73-157.71-6.1H384.25c-50.57.38-115.16,1.78-157.25,6.1-78,8-89,53.67-126.5,61,0,0-23.83,4.67-24.5,9s0,75,0,75,.33,20.33,14.67,22.33c0,0,63.66.67,89.33,16.67,25.23,15.73,25.17,15.48,89.42,82.33,0,0,7.25,4,9.91,29s7.78,121,7.78,121Z" transform="translate(-75.2 -86.21)"/><path class="cls-3" d="M260.75,323.66c-42.82-45.78-73.51-62.55-90.08-70.18-25.34-11.67-80-12-80-12-6,.66-8.67-12.34-8.67-12.34s-.33-34.33,0-45.3,18.5-13.94,18.5-13.94c37.5-7.33,48.5-53,126.5-61,42.09-4.31,106.68-5.72,157.25-6.1h76.08c50.57.38,115.17,1.79,157.25,6.1,78,8,89,53.67,126.5,61,0,0,18.17,3,18.5,13.94s0,45.3,0,45.3-2.66,13-8.66,12.34c0,0-54.67.33-80,12-16.58,7.63-47.27,24.4-90.09,70.18" transform="translate(-75.2 -86.21)"/><path class="cls-4" d="M557.47,356.46s17.77-25.41,26.34-31.67a1.84,1.84,0,0,0,0-2.93c-5.3-4.13-18.6-14.58-21.69-17.85a18.41,18.41,0,0,1-4.67-8.55Z" transform="translate(-75.2 -86.21)"/><path class="cls-4" d="M287.11,356.05s-17.76-25.4-26.33-31.66a1.83,1.83,0,0,1,0-2.93c5.31-4.13,18.6-14.58,21.69-17.85a18.42,18.42,0,0,0,4.67-8.56Z" transform="translate(-75.2 -86.21)"/><polyline class="cls-5" points="211.91 269.85 216.91 416.96 477.13 415.96 482.27 270.25"/><path class="cls-5" d="M568.28,119.43s-.09-4.64,3.84-4.64,54.93.89,66.54,7.59c10.31,6,52.29,30.45,61.52,35.84a4.36,4.36,0,0,1,2.05,4.86,8.81,8.81,0,0,1-.69,1.81c-1.79,3.58-12.69,16.35-12.69,16.35s-4.1,5.18-18.31,6-78.77,0-78.77,0-19.21,1.7-20.37-14.55S568.28,119.43,568.28,119.43Z" transform="translate(-75.2 -86.21)"/><path class="cls-6" d="M575.17,122.7s-.08-4.17,3.35-4.17,48,.8,58.11,6.81c9,5.34,45.66,27.32,53.73,32.15a4,4,0,0,1,1.79,4.36,8.19,8.19,0,0,1-.61,1.64c-1.56,3.2-11.07,14.66-11.07,14.66s-3.59,4.65-16,5.37-68.8,0-68.8,0S578.91,185,577.9,170.46,575.17,122.7,575.17,122.7Z" transform="translate(-75.2 -86.21)"/><polygon class="cls-2" points="502.2 73.58 615.45 73.58 612.29 69.57 502.2 69.57 502.2 73.58"/><polygon class="cls-2" points="501.89 59.64 595.46 59.64 590.29 56.39 501.89 55.62 501.89 59.64"/><polygon class="cls-2" points="500.71 45.69 571.46 45.69 566.45 42.12 500.63 41.67 500.71 45.69"/><polygon class="cls-2" points="503.46 87.53 607.53 87.53 610.53 83.52 503 83.52 503.46 87.53"/><path class="cls-5" d="M276.31,119.43s.09-4.64-3.84-4.64-54.93.89-66.55,7.59c-10.31,6-52.28,30.45-61.52,35.84a4.36,4.36,0,0,0-2.05,4.86,8.89,8.89,0,0,0,.7,1.81c1.78,3.58,12.68,16.35,12.68,16.35s4.11,5.18,18.31,6,78.78,0,78.78,0,19.2,1.7,20.36-14.55S276.31,119.43,276.31,119.43Z" transform="translate(-75.2 -86.21)"/><path class="cls-6" d="M269.42,122.7s.07-4.17-3.36-4.17-48,.8-58.11,6.81c-9,5.34-45.66,27.32-53.73,32.15a4,4,0,0,0-1.79,4.36,8.85,8.85,0,0,0,.61,1.64c1.56,3.2,11.08,14.66,11.08,14.66s3.58,4.65,16,5.37,68.79,0,68.79,0,16.77,1.52,17.79-13.06S269.42,122.7,269.42,122.7Z" transform="translate(-75.2 -86.21)"/><polygon class="cls-2" points="191.98 73.58 78.73 73.58 81.89 69.57 191.98 69.57 191.98 73.58"/><polygon class="cls-2" points="192.28 59.64 98.71 59.64 103.88 56.39 192.28 55.62 192.28 59.64"/><polygon class="cls-2" points="193.46 45.69 122.71 45.69 127.72 42.12 193.55 41.67 193.46 45.69"/><polygon class="cls-2" points="190.71 87.53 86.64 87.53 83.64 83.52 191.18 83.52 190.71 87.53"/><rect class="cls-7" x="211.91" y="22.29" width="270.22" height="406.67" rx="9"/><rect class="cls-8" x="218.8" y="26.29" width="256.44" height="398.22" rx="9"/></svg>