<svg xmlns="http://www.w3.org/2000/svg" viewBox="0 0 744.45 304.57"><defs><style>.cls-1{fill:#6c6b86;}.cls-1,.cls-2,.cls-3,.cls-4,.cls-5,.cls-6{stroke:#231f20;stroke-miterlimit:10;}.cls-1,.cls-2,.cls-3,.cls-4,.cls-6{stroke-width:2px;}.cls-2{fill:#484759;}.cls-3{fill:#404040;}.cls-4{fill:gray;}.cls-5{fill:#868478;}.cls-6{fill:#fff;}</style></defs><g id="Layer_3" data-name="Layer 3"><path class="cls-1" d="M451.78,326.42h182.6s259-51.35,132.2-73.86-314.8-22.19-314.8-22.19-188-.31-314.8,22.19,132.2,73.86,132.2,73.86h182.6" transform="translate(-79.56 -198.62)"/><path class="cls-2" d="M451.78,491.6H511.7S526,360.35,571,361s245.37-2.67,245.37-2.67,6.66-2.08,6.66-7.47-16.12-75.58-16.12-75.58-4.49-12.87-18.75-14.45-336.36-6-336.36-6-322.09,4.44-336.35,6-18.76,14.45-18.76,14.45-16.11,70.19-16.11,75.58,6.65,7.47,6.65,7.47,200.36,3.31,245.37,2.67S391.87,491.6,391.87,491.6h59.91" transform="translate(-79.56 -198.62)"/><path class="cls-3" d="M451.78,502.06s55.48.31,63.13,0,6-10.78,6-10.78-6.34-26.63-6-52.31,6-77,6-77-.33-12.37-7.62-12.69-61.5,0-61.5,0-54.21-.31-61.5,0-7.62,12.69-7.62,12.69,5.71,51.35,6,77-6,52.31-6,52.31-1.65,10.46,6,10.78,63.13,0,63.13,0" transform="translate(-79.56 -198.62)"/><path class="cls-4" d="M451.78,496.35s56.43.63,60.07,0,3-5.07,3-5.07-6.34-26.63-6-52.31,6-77,6-77,0-5.71-4.76-5.71H393.45c-4.75,0-4.75,5.71-4.75,5.71s5.7,51.35,6,77-6,52.31-6,52.31-.63,4.44,3,5.07,60.07,0,60.07,0" transform="translate(-79.56 -198.62)"/></g><g id="Layer_2" data-name="Layer 2"><polygon class="cls-5" points="219.27 141.23 121.47 149.07 24.62 141.23 24.62 86.7 121.47 73.15 219.27 86.7 219.27 141.23"/><path class="cls-5" d="M201.5,199.41A110.33,110.33,0,1,0,311.82,309.73,110.32,110.32,0,0,0,201.5,199.41Zm0,202.26a91.94,91.94,0,1,1,91.93-91.94A91.94,91.94,0,0,1,201.5,401.67Z" transform="translate(-79.56 -198.62)"/><circle class="cls-5" cx="121.94" cy="111.11" r="43.91"/><rect class="cls-4" x="363.97" y="150.96" width="192.75" height="290.07" rx="9" transform="translate(676.78 -362.97) rotate(90)"/><rect class="cls-6" x="369.04" y="153.97" width="182.92" height="284.05" rx="9" transform="translate(676.94 -363.13) rotate(90)"/></g></svg>