<svg id="Layer_1" data-name="Layer 1" xmlns="http://www.w3.org/2000/svg" viewBox="0 0 442 147.16"><title>Radio1</title><path d="M237.3,371.79a3.71,3.71,0,0,0-3.8.3l-29.7,21.2H181.7A3.76,3.76,0,0,0,178,397v30a3.76,3.76,0,0,0,3.7,3.7h22.1l29.7,21.2a3.32,3.32,0,0,0,2.1.7,3.29,3.29,0,0,0,1.7-.4,3.71,3.71,0,0,0,2-3.3v-73.8A3.54,3.54,0,0,0,237.3,371.79Zm-5.3,70L207.2,424a4,4,0,0,0-2.1-.7H185.4v-22.7H205a3.14,3.14,0,0,0,2.1-.7l24.8-17.7v59.6Z" transform="translate(-178 -326.42)"/><path d="M248.3,398.49a3.69,3.69,0,0,0-.9,5.1,14.42,14.42,0,0,1,0,16.8,3.57,3.57,0,0,0,.9,5.1,3.52,3.52,0,0,0,2.1.7,3.56,3.56,0,0,0,3-1.5,21.72,21.72,0,0,0,0-25.4A3.64,3.64,0,0,0,248.3,398.49Z" transform="translate(-178 -326.42)"/><path d="M576,375.38a3.25,3.25,0,0,0-3.3.2l-25.5,18.3h-19a3.16,3.16,0,0,0-3.2,3.2V423a3.16,3.16,0,0,0,3.2,3.2h19l25.5,18.2a3,3,0,0,0,1.8.6,2.82,2.82,0,0,0,1.5-.4,3,3,0,0,0,1.7-2.8v-63.6A3.09,3.09,0,0,0,576,375.38Zm-4.6,60.2-21.3-15.2a3,3,0,0,0-1.8-.6h-17v-19.6h16.9a2.79,2.79,0,0,0,1.8-.6l21.3-15.2v51.2Z" transform="translate(-178 -326.42)"/><path d="M585.5,398.38a3.09,3.09,0,0,0-.7,4.4,12.42,12.42,0,0,1,0,14.4,3.18,3.18,0,0,0,.7,4.4,3.23,3.23,0,0,0,1.8.6,3.32,3.32,0,0,0,2.6-1.3,18.72,18.72,0,0,0,0-21.8A3.09,3.09,0,0,0,585.5,398.38Z" transform="translate(-178 -326.42)"/><path d="M599.2,389.38a3.19,3.19,0,1,0-4.9,4.1,25.69,25.69,0,0,1,0,33,3.28,3.28,0,0,0,.4,4.5,3.06,3.06,0,0,0,2,.7,3.19,3.19,0,0,0,2.4-1.1,32.42,32.42,0,0,0,7.5-20.6A31.77,31.77,0,0,0,599.2,389.38Z" transform="translate(-178 -326.42)"/><path d="M608.6,379.88a3.19,3.19,0,1,0-4.8,4.2,39.12,39.12,0,0,1,0,51.8,3.18,3.18,0,0,0,.3,4.5,3.44,3.44,0,0,0,2.1.8,3.19,3.19,0,0,0,2.4-1.1A45.63,45.63,0,0,0,620,410,45.13,45.13,0,0,0,608.6,379.88Z" transform="translate(-178 -326.42)"/><path d="M396.12,473.58A65.41,65.41,0,0,1,356.6,356,6.86,6.86,0,1,1,364.9,367a51.7,51.7,0,1,0,62.44,0,6.86,6.86,0,0,1,8.3-10.93,65.41,65.41,0,0,1-39.52,117.55Z" transform="translate(-178 -326.42)"/><path d="M396.12,403.27a6.86,6.86,0,0,1-6.86-6.86V333.28a6.86,6.86,0,0,1,13.71,0h0V396.4a6.86,6.86,0,0,1-6.84,6.87Z" transform="translate(-178 -326.42)"/></svg>