<svg id="Layer_2" data-name="Layer 2" xmlns="http://www.w3.org/2000/svg" viewBox="0 0 104.98 193.82"><title>Bluetooth</title><path d="M379.49,441a3.92,3.92,0,0,1-1.54-.31,4,4,0,0,1-2.5-3.73V353.27l-41.68,38.22a4,4,0,0,1-5.46-6l45.2-41.44-45.2-41.43a4,4,0,0,1,5.46-6l41.68,38.21V251.22a4,4,0,0,1,6.9-2.86l48.45,48.46a4,4,0,0,1,1.18,2.94,4,4,0,0,1-1.31,2.89l-45.2,41.44,45.2,41.44a4,4,0,0,1,.13,5.83l-48.45,48.45A4,4,0,0,1,379.49,441Zm4-87.73v73.94l38.57-38.57Zm0-92.3v73.94l38.57-35.36Z" transform="translate(-327 -247.18)"/></svg>