<svg id="Layer_3" data-name="Layer 3" xmlns="http://www.w3.org/2000/svg" viewBox="0 0 90.99 49.5"><title>FanDown</title><path d="M258,391.11a7.3,7.3,0,0,1,4.16,1.88c3.77-6,13-7.8,13-7.8-4-14.12-24.33-17.63-28.31-9.05-3.41,7.34,3.89,14.47,6.08,16.39A7.33,7.33,0,0,1,258,391.11Z" transform="translate(-192 -371.5)"/><path d="M250,397.66a7.27,7.27,0,0,1,.17-.81c-7.07-.26-13.26-7.34-13.26-7.34-10.21,10.55-3.11,29.88,6.32,29,8.06-.72,10.58-10.62,11.14-13.48A7.31,7.31,0,0,1,250,397.66Z" transform="translate(-192 -371.5)"/><path d="M281.74,400.49c-4.64-6.6-14.43-3.88-17.22-2.93a7.47,7.47,0,0,1,0,1.57,7.34,7.34,0,0,1-5.05,6.23c3.27,6.25.25,15.12.25,15.12C274,424.05,287.18,408.23,281.74,400.49Z" transform="translate(-192 -371.5)"/><path d="M259.34,393.34l-3.72-.18a5.5,5.5,0,0,0-3.83,4.68,5.59,5.59,0,0,0,0,1.23l1.69,3.3a5.41,5.41,0,0,0,3.19,1.49,5.51,5.51,0,0,0,3.87-1.11l2-3.1a5.42,5.42,0,0,0,.14-.7A5.5,5.5,0,0,0,259.34,393.34Z" transform="translate(-192 -371.5)"/><path d="M257.81,392.93a5.52,5.52,0,0,0-2.19.23l3.72.18A5.67,5.67,0,0,0,257.81,392.93Z" transform="translate(-192 -371.5)"/><path d="M253.51,402.37l-1.69-3.3A5.42,5.42,0,0,0,253.51,402.37Z" transform="translate(-192 -371.5)"/><path d="M262.57,399.65l-2,3.1A5.48,5.48,0,0,0,262.57,399.65Z" transform="translate(-192 -371.5)"/><line y1="24.5" x2="25" y2="24.5" style="stroke:#000;stroke-miterlimit:10;stroke-width:2px"/></svg>