<svg id="Layer_3" data-name="Layer 3" xmlns="http://www.w3.org/2000/svg" xmlns:xlink="http://www.w3.org/1999/xlink" viewBox="0 0 182.57 154.47"><defs><clipPath id="clip-path" transform="translate(-284.43 -350.81)"><path d="M305.44,375.55a3.73,3.73,0,0,1,3.73-3.72h10.45a3.74,3.74,0,0,1,3.74,3.72V386a3.74,3.74,0,0,1-1.1,2.64,3.68,3.68,0,0,1-2.64,1.08H309.17a3.72,3.72,0,0,1-3.73-3.72Zm8,24.5a6.93,6.93,0,0,1,12.19,2v.11l20.14,57.15,12.16-.9a20.92,20.92,0,0,0,3,25.75l5.27-5.29a13.45,13.45,0,0,1,0-19,22.19,22.19,0,0,0,1.91-2.19l9.95-.74a20.9,20.9,0,0,0,2,27.24l5.27-5.29a13.45,13.45,0,0,1,0-19,20.49,20.49,0,0,0,2.93-3.69l10.16-.75a20.91,20.91,0,0,0,.81,28.75l5.27-5.29a13.45,13.45,0,0,1,0-19,20.27,20.27,0,0,0,3.79-5.17,8.7,8.7,0,0,1,9.49,8.67v21H325l-12.48-77.78-.09-.26A6.86,6.86,0,0,1,313.47,400.05ZM298,375.55V386a11.22,11.22,0,0,0,8.64,10.86,14.23,14.23,0,0,0-1.34,11.33l13.39,83.52H425.35V463.31a16.15,16.15,0,0,0-14.77-16.11,20.79,20.79,0,0,0-5.74-16.69l4.19-4.18H395.25v13.74l4.25-4.26A13.42,13.42,0,0,1,403,447.58l-11.74.87a20.82,20.82,0,0,0-5.65-17.91l4.2-4.19H376.09v13.72l4.26-4.26A13.43,13.43,0,0,1,383.5,449l-11.67.85a20.84,20.84,0,0,0-5.37-19.31l4.2-4.18H356.93v13.68l4.26-4.26a13.43,13.43,0,0,1,2.63,14.64L351,451.4l-18.21-51.72a14.37,14.37,0,0,0-4.47-6.6,11.08,11.08,0,0,0,2.52-7.07V375.55a11.19,11.19,0,0,0-11.19-11.19H309.17A11.21,11.21,0,0,0,298,375.55Z" style="fill:none"/></clipPath><clipPath id="clip-path-2" transform="translate(-284.43 -350.81)"><rect x="-620.69" y="-906.61" width="2774.98" height="2774.98" style="fill:none"/></clipPath><clipPath id="clip-path-3" transform="translate(-284.43 -350.81)"><rect x="436.19" y="388.75" width="29.81" height="29.81" style="fill:none"/></clipPath><clipPath id="clip-path-5" transform="translate(-284.43 -350.81)"><rect x="436.19" y="423.97" width="29.81" height="29.81" style="fill:none"/></clipPath><clipPath id="clip-path-7" transform="translate(-284.43 -350.81)"><rect x="436.19" y="461.91" width="29.81" height="29.81"/></clipPath><clipPath id="clip-path-8" transform="translate(-284.43 -350.81)"><rect x="436.19" y="461.91" width="29.81" height="29.81" style="fill:none"/></clipPath></defs><title>Heat_Seat_Left</title><g style="clip-path:url(#clip-path)"><g style="clip-path:url(#clip-path-2)"><rect width="154.47" height="154.47"/></g></g><g style="clip-path:url(#clip-path-3)"><rect x="151.76" y="37.94" width="29.81" height="29.81" style="fill:#d8d8d8"/></g><g style="clip-path:url(#clip-path-3)"><rect x="151.76" y="37.94" width="29.81" height="29.81" style="fill:none;stroke:#000;stroke-miterlimit:10;stroke-width:2px"/></g><g style="clip-path:url(#clip-path-5)"><rect x="151.76" y="73.17" width="29.81" height="29.81" style="fill:#d8d8d8"/></g><g style="clip-path:url(#clip-path-5)"><rect x="151.76" y="73.17" width="29.81" height="29.81" style="fill:none;stroke:#000;stroke-miterlimit:10;stroke-width:2px"/></g><rect x="151.76" y="111.11" width="29.81" height="29.81"/><g style="clip-path:url(#clip-path-7)"><rect x="151.76" y="111.11" width="29.81" height="29.81"/></g><g style="clip-path:url(#clip-path-8)"><rect x="151.76" y="111.11" width="29.81" height="29.81" style="fill:none;stroke:#000;stroke-miterlimit:10;stroke-width:2px"/></g></svg>