<svg id="Layer_3" data-name="Layer 3" xmlns="http://www.w3.org/2000/svg" xmlns:xlink="http://www.w3.org/1999/xlink" viewBox="0 0 165.28 139.76"><defs><clipPath id="clip-path" transform="translate(-348.98 -359.1)"><path d="M495.2,391a3.37,3.37,0,0,1-3.37,3.37h-9.45a3.39,3.39,0,0,1-2.38-1,3.44,3.44,0,0,1-1-2.39v-9.46a3.38,3.38,0,0,1,3.37-3.37h9.45a3.37,3.37,0,0,1,3.37,3.37Zm-6.35,18.31-.08.24-11.29,70.35h-84v-19a7.89,7.89,0,0,1,8.6-7.85,18.74,18.74,0,0,0,3.41,4.68,12.14,12.14,0,0,1,0,17.2l4.82,4.78a18.92,18.92,0,0,0,.72-26l9.19.67a18.19,18.19,0,0,0,2.65,3.34,12.16,12.16,0,0,1,0,17.2l4.78,4.78A18.94,18.94,0,0,0,429.49,455l9,.67a19.16,19.16,0,0,0,1.73,2,12.16,12.16,0,0,1,0,17.2l4.78,4.78a18.94,18.94,0,0,0,2.75-23.29l11,.82,18.11-51.69v-.1a6.3,6.3,0,1,1,12,3.86Zm3-37.91h-9.45a10.12,10.12,0,0,0-10.12,10.12v9.46a10.06,10.06,0,0,0,2.28,6.39,13,13,0,0,0-4,6L454,450.08l-11.61-.86A12.13,12.13,0,0,1,444.78,436l3.84,3.85V427.4h-12.4l3.79,3.79a18.84,18.84,0,0,0-4.86,17.46l-10.54-.77a12.11,12.11,0,0,1,2.85-11.95l3.84,3.85V427.4H418.89l3.79,3.79a18.89,18.89,0,0,0-5.11,16.2L407,446.6A12.09,12.09,0,0,1,410.13,436l3.85,3.85V427.4H401.57l3.79,3.79a18.84,18.84,0,0,0-5.25,15.1,14.61,14.61,0,0,0-13.35,14.57v25.73h96.46l12.18-75.54a12.84,12.84,0,0,0-1.22-10.25A10.15,10.15,0,0,0,502,391v-9.45a10.12,10.12,0,0,0-10.18-10.17Z" style="fill:none"/></clipPath><clipPath id="clip-path-2" transform="translate(-348.98 -359.1)"><rect x="-1241.29" y="-778.58" width="2510.73" height="2510.73" style="fill:none"/></clipPath><clipPath id="clip-path-3" transform="translate(-348.98 -359.1)"><rect x="349.98" y="393.42" width="26.97" height="26.97" style="fill:none"/></clipPath><clipPath id="clip-path-5" transform="translate(-348.98 -359.1)"><rect x="349.98" y="425.3" width="26.97" height="26.97" style="fill:none"/></clipPath><clipPath id="clip-path-7" transform="translate(-348.98 -359.1)"><rect x="349.98" y="459.62" width="26.97" height="26.97"/></clipPath><clipPath id="clip-path-8" transform="translate(-348.98 -359.1)"><rect x="349.98" y="459.62" width="26.97" height="26.97" style="fill:none"/></clipPath></defs><title>Heat_Seat_Right</title><g style="clip-path:url(#clip-path)"><g style="clip-path:url(#clip-path-2)"><rect x="25.52" width="139.76" height="139.76"/></g></g><g style="clip-path:url(#clip-path-3)"><rect x="1" y="34.33" width="26.97" height="26.97" style="fill:#d8d8d8"/></g><g style="clip-path:url(#clip-path-3)"><rect x="1" y="34.33" width="26.97" height="26.97" style="fill:none;stroke:#000;stroke-miterlimit:10;stroke-width:2px"/></g><g style="clip-path:url(#clip-path-5)"><rect x="1" y="66.2" width="26.97" height="26.97" style="fill:#d8d8d8"/></g><g style="clip-path:url(#clip-path-5)"><rect x="1" y="66.2" width="26.97" height="26.97" style="fill:none;stroke:#000;stroke-miterlimit:10;stroke-width:2px"/></g><rect x="1" y="100.53" width="26.97" height="26.97"/><g style="clip-path:url(#clip-path-7)"><rect x="1" y="100.53" width="26.97" height="26.97"/></g><g style="clip-path:url(#clip-path-8)"><rect x="1" y="100.53" width="26.97" height="26.97" style="fill:none;stroke:#000;stroke-miterlimit:10;stroke-width:2px"/></g></svg>