<svg id="Layer_1" data-name="Layer 1" xmlns="http://www.w3.org/2000/svg" xmlns:xlink="http://www.w3.org/1999/xlink" viewBox="0 0 254.5 243.48"><defs><clipPath id="clip-path" transform="translate(-489.44 -236.9)"><path d="M583.66,389.38a15.48,15.48,0,0,0-13.5,7.91l-20.38,36.94a3.86,3.86,0,0,0-.26,3.43A3.13,3.13,0,0,0,551.9,440a4.67,4.67,0,0,0,5.56-1.85l21.7-40.64,63.52,26.65a18.34,18.34,0,0,0,6.62,1.32,16.73,16.73,0,0,0,15.62-10.29L684,369.59A43,43,0,0,0,682.92,334L680,327.9l6.62-2.11A25.14,25.14,0,0,0,679,276.71a31.68,31.68,0,0,0-5,.53,24.82,24.82,0,0,0-19.59,19.52c-2.38,12.67,4.5,24.8,16.41,28.76l6.09,2.11L641.1,412.86l-51.35-22.17A16.89,16.89,0,0,0,583.66,389.38Zm-30.17,63.06a18.55,18.55,0,0,1-6.62-1.32,17.16,17.16,0,0,1-8.73-9.5,16.86,16.86,0,0,1,1.06-12.93l20.38-36.94a27.16,27.16,0,0,1,23.82-14,30.52,30.52,0,0,1,10.85,2.11l40.23,17.41L661,334.49a37.06,37.06,0,0,1,10.58-68.86,35.33,35.33,0,0,1,7.42-.8,37.11,37.11,0,0,1,37,36.94,36.65,36.65,0,0,1-19.85,32.72,55.19,55.19,0,0,1-1.06,39.58l-19.32,45.65A28.84,28.84,0,0,1,649,437.4,26.19,26.19,0,0,1,637.92,435l-53.46-22.43-16.68,31.14A16,16,0,0,1,553.49,452.44Z" style="fill:none"/></clipPath><clipPath id="clip-path-2" transform="translate(-489.44 -236.9)"><rect x="-2731.55" y="-2429.18" width="5721.7" height="5721.7" style="fill:none"/></clipPath><clipPath id="clip-path-3" transform="translate(-489.44 -236.9)"><path d="M619.92,295.18,604,279.35a1.71,1.71,0,0,0-2.91,1V287H567.52a2.37,2.37,0,0,0-2.39,2.37v13.72a2.38,2.38,0,0,0,2.39,2.38h33.61v6.59c0,1.32,1.85,2.12,2.65,1.06l15.88-15.83C620.45,296.5,620.45,295.71,619.92,295.18Z" style="fill:none"/></clipPath><clipPath id="clip-path-5" transform="translate(-489.44 -236.9)"><path d="M536.29,388.06l16.93-16.89a1,1,0,0,0-.79-1.85h-7.68V335.81a2.36,2.36,0,0,0-2.38-2.37H528.61a2.36,2.36,0,0,0-2.38,2.37v33.51h-7.68c-1.06,0-1.59,1.32-.79,1.85l16.94,16.89C535,388.58,535.76,388.58,536.29,388.06Z" style="fill:none"/></clipPath></defs><title>Control-Right</title><g style="clip-path:url(#clip-path)"><g style="clip-path:url(#clip-path-2)"><rect x="19.95" width="234.55" height="243.48"/></g></g><g style="clip-path:url(#clip-path-3)"><g style="clip-path:url(#clip-path-2)"><rect x="47.76" y="14.02" width="111.03" height="90.63"/></g></g><g style="clip-path:url(#clip-path-5)"><g style="clip-path:url(#clip-path-2)"><rect y="68.6" width="92.11" height="110.89"/></g></g></svg>