<svg id="Layer_1" data-name="Layer 1" xmlns="http://www.w3.org/2000/svg" xmlns:xlink="http://www.w3.org/1999/xlink" viewBox="0 0 354.29 338.95"><defs><clipPath id="clip-path" transform="translate(-549.03 -253.94)"><path d="M772.15,466.21a21.53,21.53,0,0,1,18.79,11l28.38,51.42a5.4,5.4,0,0,1,.36,4.78,4.34,4.34,0,0,1-3.31,3.31,6.49,6.49,0,0,1-7.74-2.58L778.42,477.6,690,514.7a25.8,25.8,0,0,1-9.22,1.83A23.28,23.28,0,0,1,659,502.21l-26.53-63.55A59.77,59.77,0,0,1,634,389.07l4-8.45-9.21-2.93a35,35,0,0,1,10.69-68.33,45,45,0,0,1,7,.74,34.58,34.58,0,0,1,27.26,27.18c3.32,17.63-6.26,34.53-22.84,40l-8.47,2.94L692.2,498.9l71.48-30.85A23.32,23.32,0,0,1,772.15,466.21Zm42,87.79a25.58,25.58,0,0,0,9.21-1.84,23.84,23.84,0,0,0,12.16-13.22,23.53,23.53,0,0,0-1.48-18l-28.37-51.42a37.82,37.82,0,0,0-33.16-19.47A42.44,42.44,0,0,0,757.41,453l-56,24.24-36.85-87.42a51.6,51.6,0,0,0-14.74-95.87,48.85,48.85,0,0,0-10.31-1.11,51.67,51.67,0,0,0-51.59,51.43,51,51,0,0,0,27.64,45.55,76.78,76.78,0,0,0,1.47,55.1l26.9,63.54a40.14,40.14,0,0,0,37.21,24.61,36.64,36.64,0,0,0,15.48-3.3l74.43-31.23,23.21,43.35A22.29,22.29,0,0,0,814.16,554Z" style="fill:none"/></clipPath><clipPath id="clip-path-2" transform="translate(-549.03 -253.94)"><rect x="-2772.43" y="-3441.99" width="7965.27" height="7965.27" style="fill:none"/></clipPath><clipPath id="clip-path-3" transform="translate(-549.03 -253.94)"><path d="M721.67,335.08l22.11-22a2.39,2.39,0,0,1,4.05,1.47v9.18h46.8a3.29,3.29,0,0,1,3.31,3.3V346.1a3.29,3.29,0,0,1-3.31,3.3h-46.8v9.18c0,1.84-2.57,2.94-3.68,1.47L722,338C720.94,336.91,720.94,335.81,721.67,335.08Z" style="fill:none"/></clipPath><clipPath id="clip-path-5" transform="translate(-549.03 -253.94)"><path d="M838.11,464.37l-23.58-23.51a1.45,1.45,0,0,1,1.1-2.57h10.69V391.64a3.29,3.29,0,0,1,3.31-3.3h19.16a3.3,3.3,0,0,1,3.32,3.3v46.65h10.68c1.48,0,2.21,1.84,1.11,2.57l-23.58,23.51C840,465.11,838.84,465.11,838.11,464.37Z" style="fill:none"/></clipPath></defs><title>Control-Left</title><g style="clip-path:url(#clip-path)"><g style="clip-path:url(#clip-path-2)"><rect width="326.52" height="338.95"/></g></g><g style="clip-path:url(#clip-path-3)"><g style="clip-path:url(#clip-path-2)"><rect x="133.24" y="19.52" width="154.57" height="126.16"/></g></g><g style="clip-path:url(#clip-path-5)"><g style="clip-path:url(#clip-path-2)"><rect x="226.07" y="95.5" width="128.22" height="154.37"/></g></g></svg>