<svg id="Layer_2" data-name="Layer 2" xmlns="http://www.w3.org/2000/svg" viewBox="0 0 123.41 78.95"><title>Fan-up</title><path d="M239.25,350.33a11.54,11.54,0,0,1,6.64,3c6-9.53,20.71-12.44,20.71-12.44-6.43-22.53-38.81-28.14-45.16-14.44-5.43,11.71,6.2,23.07,9.71,26.14A11.57,11.57,0,0,1,239.25,350.33Z" transform="translate(-197.59 -319.05)"/><path d="M226.46,360.77a12.79,12.79,0,0,1,.26-1.29c-11.26-.42-21.15-11.72-21.15-11.72-16.28,16.84-5,47.68,10.08,46.33,12.86-1.15,16.89-16.94,17.78-21.49A11.66,11.66,0,0,1,226.46,360.77Z" transform="translate(-197.59 -319.05)"/><path d="M277.13,365.29c-7.41-10.53-23-6.19-27.47-4.67a12.25,12.25,0,0,1,0,2.5,11.68,11.68,0,0,1-8.06,9.93c5.23,10,.41,24.13.41,24.13C264.76,402.86,285.81,377.64,277.13,365.29Z" transform="translate(-197.59 -319.05)"/><path d="M241.39,353.88l-5.92-.29a8.79,8.79,0,0,0-6.11,7.47,9.25,9.25,0,0,0,0,2l2.7,5.26a8.6,8.6,0,0,0,11.26.6l3.19-4.94a8.23,8.23,0,0,0,.23-1.12A8.75,8.75,0,0,0,241.39,353.88Z" transform="translate(-197.59 -319.05)"/><path d="M239,353.23a8.77,8.77,0,0,0-3.48.36l5.92.3A8.63,8.63,0,0,0,239,353.23Z" transform="translate(-197.59 -319.05)"/><path d="M232.1,368.29,229.4,363A8.77,8.77,0,0,0,232.1,368.29Z" transform="translate(-197.59 -319.05)"/><path d="M246.55,363.94l-3.19,4.95A8.72,8.72,0,0,0,246.55,363.94Z" transform="translate(-197.59 -319.05)"/><line x1="107.29" y1="29.95" x2="107.29" y2="60.95" style="stroke:#000;stroke-miterlimit:10;stroke-width:2px"/><line x1="92.41" y1="44.21" x2="123.41" y2="44.21" style="stroke:#000;stroke-miterlimit:10;stroke-width:2px"/></svg>