<svg id="Layer_3" data-name="Layer 3" xmlns="http://www.w3.org/2000/svg" xmlns:xlink="http://www.w3.org/1999/xlink" viewBox="0 0 187 36"><defs><clipPath id="clip-path" transform="translate(-300.4 -329.77)"><rect x="358.4" y="344.77" width="11" height="11"/></clipPath><clipPath id="clip-path-2" transform="translate(-300.4 -329.77)"><rect x="358.4" y="344.77" width="11" height="11" style="fill:none"/></clipPath><clipPath id="clip-path-3" transform="translate(-300.4 -329.77)"><rect x="373.4" y="344.77" width="11" height="11" style="fill:none"/></clipPath><clipPath id="clip-path-5" transform="translate(-300.4 -329.77)"><rect x="388.4" y="344.77" width="11" height="11" style="fill:none"/></clipPath><clipPath id="clip-path-7" transform="translate(-300.4 -329.77)"><rect x="403.4" y="344.77" width="11" height="11" style="fill:none"/></clipPath><clipPath id="clip-path-9" transform="translate(-300.4 -329.77)"><rect x="418.4" y="344.77" width="11" height="11" style="fill:none"/></clipPath><clipPath id="clip-path-11" transform="translate(-300.4 -329.77)"><path d="M339.59,344.81a3.79,3.79,0,0,1,2.13,1c1.94-3.07,6.68-4,6.68-4-2-7.23-12.5-9-14.54-4.63-1.75,3.76,2,7.41,3.12,8.39A3.76,3.76,0,0,1,339.59,344.81Z" style="fill:none"/></clipPath><clipPath id="clip-path-12" transform="translate(-300.4 -329.77)"><rect x="-228.6" y="-89.23" width="1024" height="1024" style="fill:none"/></clipPath><clipPath id="clip-path-13" transform="translate(-300.4 -329.77)"><path d="M335.07,348a2.59,2.59,0,0,1,.09-.42c-3.78-.14-7.09-3.8-7.09-3.8-5.45,5.46-1.66,15.44,3.38,15,4.31-.37,5.65-5.49,5.95-7A3.75,3.75,0,0,1,335.07,348Z" style="fill:none"/></clipPath><clipPath id="clip-path-15" transform="translate(-300.4 -329.77)"><path d="M351.76,350c-2.36-3.46-7.36-2-8.78-1.54a3.75,3.75,0,0,1,0,.82,3.83,3.83,0,0,1-2.58,3.27c1.67,3.27.13,7.92.13,7.92C347.81,362.37,354.54,354.08,351.76,350Z" style="fill:none"/></clipPath><clipPath id="clip-path-17" transform="translate(-300.4 -329.77)"><path d="M340.56,345.87l-2-.1a3.08,3.08,0,0,0-2.1,2.62,4,4,0,0,0,0,.69l.93,1.85a2.91,2.91,0,0,0,1.74.83,3,3,0,0,0,2.12-.62l1.1-1.73c0-.13.06-.26.08-.4A3.09,3.09,0,0,0,340.56,345.87Z" style="fill:none"/></clipPath><clipPath id="clip-path-19" transform="translate(-300.4 -329.77)"><path d="M339.58,346.08a1.72,1.72,0,0,0-1.18.23l2,.18A2.11,2.11,0,0,0,339.58,346.08Z" style="fill:none"/></clipPath><clipPath id="clip-path-21" transform="translate(-300.4 -329.77)"><path d="M337.4,350.77l-1-2A3.34,3.34,0,0,0,337.4,350.77Z" style="fill:none"/></clipPath><clipPath id="clip-path-23" transform="translate(-300.4 -329.77)"><path d="M341.4,348.77l-1,2A3.7,3.7,0,0,0,341.4,348.77Z" style="fill:none"/></clipPath><clipPath id="clip-path-25" transform="translate(-300.4 -329.77)"><line x1="305.4" y1="347.27" x2="318.4" y2="347.27" style="fill:none"/></clipPath><clipPath id="clip-path-28" transform="translate(-300.4 -329.77)"><path d="M451.83,344.81a4.93,4.93,0,0,1,2.57,1c2.32-3,8-4,8-4-2.48-7.23-15-9-17.45-4.63-2.1,3.76,2.4,7.4,3.75,8.39A5.19,5.19,0,0,1,451.83,344.81Z" style="fill:none"/></clipPath><clipPath id="clip-path-30" transform="translate(-300.4 -329.77)"><path d="M446.68,348.26a3.13,3.13,0,0,1,.1-.44c-4.4-.15-8.26-4.05-8.26-4.05-6.36,5.81-1.95,16.46,3.94,16,5-.4,6.59-5.85,6.94-7.42A4,4,0,0,1,446.68,348.26Z" style="fill:none"/></clipPath><clipPath id="clip-path-32" transform="translate(-300.4 -329.77)"><path d="M465.6,350c-3-3.46-9.19-2-11-1.54a2.82,2.82,0,0,1,0,.82,4.11,4.11,0,0,1-3.22,3.27c2.09,3.28.17,7.92.17,7.92C460.66,362.37,469.07,354.08,465.6,350Z" style="fill:none"/></clipPath><clipPath id="clip-path-34" transform="translate(-300.4 -329.77)"><path d="M452.24,345.88l-2.37-.11a3.23,3.23,0,0,0-2.45,2.62,2.73,2.73,0,0,0,0,.7l1.08,1.84a3.83,3.83,0,0,0,4.51.21l1.28-1.73a2.74,2.74,0,0,0,.09-.39A3,3,0,0,0,452.24,345.88Z" style="fill:none"/></clipPath><clipPath id="clip-path-36" transform="translate(-300.4 -329.77)"><path d="M451.17,345.67a6.52,6.52,0,0,0-1.77.12l3,.1A7,7,0,0,0,451.17,345.67Z" style="fill:none"/></clipPath><clipPath id="clip-path-38" transform="translate(-300.4 -329.77)"><path d="M448.4,350.77l-1-1A1.68,1.68,0,0,0,448.4,350.77Z" style="fill:none"/></clipPath><clipPath id="clip-path-40" transform="translate(-300.4 -329.77)"><path d="M454.4,349.77l-1,1A1.84,1.84,0,0,0,454.4,349.77Z" style="fill:none"/></clipPath><clipPath id="clip-path-42" transform="translate(-300.4 -329.77)"><line x1="476.4" y1="344.77" x2="476.4" y2="354.77" style="fill:none"/></clipPath><clipPath id="clip-path-45" transform="translate(-300.4 -329.77)"><line x1="470.4" y1="349.77" x2="482.4" y2="349.77" style="fill:none"/></clipPath></defs><title>Fan_up</title><rect x="58" y="15" width="11" height="11"/><g style="clip-path:url(#clip-path)"><rect x="58" y="15" width="11" height="11"/></g><g style="clip-path:url(#clip-path-2)"><rect x="58" y="15" width="11" height="11" style="fill:none;stroke:#000;stroke-miterlimit:10;stroke-width:2px"/></g><g style="clip-path:url(#clip-path-3)"><rect x="73" y="15" width="11" height="11" style="fill:#d8d8d8"/></g><g style="clip-path:url(#clip-path-3)"><rect x="73" y="15" width="11" height="11" style="fill:none;stroke:#000;stroke-miterlimit:10;stroke-width:2px"/></g><g style="clip-path:url(#clip-path-5)"><rect x="88" y="15" width="11" height="11" style="fill:#d8d8d8"/></g><g style="clip-path:url(#clip-path-5)"><rect x="88" y="15" width="11" height="11" style="fill:none;stroke:#000;stroke-miterlimit:10;stroke-width:2px"/></g><g style="clip-path:url(#clip-path-7)"><rect x="103" y="15" width="11" height="11" style="fill:#d8d8d8"/></g><g style="clip-path:url(#clip-path-7)"><rect x="103" y="15" width="11" height="11" style="fill:none;stroke:#000;stroke-miterlimit:10;stroke-width:2px"/></g><g style="clip-path:url(#clip-path-9)"><rect x="118" y="15" width="11" height="11" style="fill:#d8d8d8"/></g><g style="clip-path:url(#clip-path-9)"><rect x="118" y="15" width="11" height="11" style="fill:none;stroke:#000;stroke-miterlimit:10;stroke-width:2px"/></g><g style="clip-path:url(#clip-path-11)"><g style="clip-path:url(#clip-path-12)"><rect x="28" width="25" height="21"/></g></g><g style="clip-path:url(#clip-path-13)"><g style="clip-path:url(#clip-path-12)"><rect x="20" y="9" width="22" height="25"/></g></g><g style="clip-path:url(#clip-path-15)"><g style="clip-path:url(#clip-path-12)"><rect x="35" y="13" width="22" height="23"/></g></g><g style="clip-path:url(#clip-path-17)"><g style="clip-path:url(#clip-path-12)"><rect x="31" y="11" width="16" height="16"/></g></g><g style="clip-path:url(#clip-path-19)"><g style="clip-path:url(#clip-path-12)"><rect x="33" y="11.28" width="12" height="10.44"/></g></g><g style="clip-path:url(#clip-path-21)"><g style="clip-path:url(#clip-path-12)"><rect x="31" y="14" width="11" height="12"/></g></g><g style="clip-path:url(#clip-path-23)"><g style="clip-path:url(#clip-path-12)"><rect x="35" y="14" width="11" height="12"/></g></g><g style="clip-path:url(#clip-path-25)"><g style="clip-path:url(#clip-path-12)"><rect y="12.5" width="23" height="10"/></g></g><g style="clip-path:url(#clip-path-12)"><line x1="5" y1="17.5" x2="18" y2="17.5" style="fill:none;stroke:#000;stroke-miterlimit:10;stroke-width:2px"/></g><g style="clip-path:url(#clip-path-28)"><g style="clip-path:url(#clip-path-12)"><rect x="139" width="28" height="21"/></g></g><g style="clip-path:url(#clip-path-30)"><g style="clip-path:url(#clip-path-12)"><rect x="130" y="9" width="24" height="26"/></g></g><g style="clip-path:url(#clip-path-32)"><g style="clip-path:url(#clip-path-12)"><rect x="146" y="13" width="25" height="23"/></g></g><g style="clip-path:url(#clip-path-34)"><g style="clip-path:url(#clip-path-12)"><rect x="142" y="11" width="17" height="16"/></g></g><g style="clip-path:url(#clip-path-36)"><g style="clip-path:url(#clip-path-12)"><rect x="144" y="10.88" width="13" height="10.23"/></g></g><g style="clip-path:url(#clip-path-38)"><g style="clip-path:url(#clip-path-12)"><rect x="142" y="15" width="11" height="11"/></g></g><g style="clip-path:url(#clip-path-40)"><g style="clip-path:url(#clip-path-12)"><rect x="148" y="15" width="11" height="11"/></g></g><g style="clip-path:url(#clip-path-42)"><g style="clip-path:url(#clip-path-12)"><rect x="171" y="10" width="10" height="20"/></g></g><g style="clip-path:url(#clip-path-12)"><line x1="176" y1="15" x2="176" y2="25" style="fill:none;stroke:#000;stroke-miterlimit:10;stroke-width:2px"/></g><g style="clip-path:url(#clip-path-45)"><g style="clip-path:url(#clip-path-12)"><rect x="165" y="15" width="22" height="10"/></g></g><g style="clip-path:url(#clip-path-12)"><line x1="170" y1="20" x2="182" y2="20" style="fill:none;stroke:#000;stroke-miterlimit:10;stroke-width:2px"/></g></svg>