<svg id="Layer_17" data-name="Layer 17" xmlns="http://www.w3.org/2000/svg" viewBox="0 0 156.67 66"><defs><style>.cls-1{fill:#d7df23;}.cls-1,.cls-2,.cls-4{stroke:#231f20;stroke-miterlimit:10;}.cls-2{font-size:22.44px;font-family:MyriadPro-Regular, Myriad Pro;}.cls-2,.cls-4{fill:#231f20;}.cls-3{letter-spacing:-0.03em;}</style></defs><rect class="cls-1" x="0.5" y="0.5" width="155.67" height="65" rx="8"/><text class="cls-2" transform="translate(7.65 57.12)"><tspan class="cls-3">V</tspan><tspan x="11.78" y="0">olume:</tspan></text><path class="cls-4" d="M432.47,285.37a9.87,9.87,0,0,1-2.47-7.13V262.75a9.79,9.79,0,0,1,2.49-7.14c1.65-1.69,4.07-2.54,7.24-2.54s5.6.84,7.25,2.53,2.47,4.07,2.47,7.15v15.49a9.78,9.78,0,0,1-2.48,7.14q-2.49,2.53-7.24,2.54T432.47,285.37Zm11-3.32a5.48,5.48,0,0,0,1.2-3.81V262.75a5.52,5.52,0,0,0-1.19-3.81,6,6,0,0,0-7.5,0,5.48,5.48,0,0,0-1.2,3.81v15.49a5.43,5.43,0,0,0,1.21,3.81,6,6,0,0,0,7.48,0Z" transform="translate(-324.8 -230.45)"/><path class="cls-4" d="M464.71,287.57h-4.78V258.69l-4.85,3v-4.95l4.85-3.23h4.78Z" transform="translate(-324.8 -230.45)"/></svg>