<svg id="Layer_19" data-name="Layer 19" xmlns="http://www.w3.org/2000/svg" viewBox="0 0 85.5 62.78"><defs><style>.cls-1{fill:#00a651;}.cls-1,.cls-2{stroke:#231f20;stroke-miterlimit:10;}.cls-2{fill:#231f20;}</style></defs><rect class="cls-1" x="0.5" y="0.5" width="84.5" height="61.78" rx="4"/><path class="cls-2" d="M453.66,284.36v-9h-6.74a17.54,17.54,0,0,0-1.81-4.35l4.77-4.77-6.36-6.37-4.77,4.77a17.9,17.9,0,0,0-4.35-1.8v-6.75h-9v6.75a17.67,17.67,0,0,0-4.34,1.8l-4.77-4.77-6.37,6.37,4.77,4.77a17.51,17.51,0,0,0-1.8,4.35h-6.75v9h6.75a17.51,17.51,0,0,0,1.8,4.35l-4.77,4.77,6.37,6.37,4.77-4.77a17.67,17.67,0,0,0,4.34,1.8v6.75h9v-6.75a17.9,17.9,0,0,0,4.35-1.8l4.77,4.77,6.36-6.37-4.77-4.77a17.54,17.54,0,0,0,1.81-4.35Zm-23.76,6a10.54,10.54,0,1,1,10.54-10.54A10.54,10.54,0,0,1,429.9,290.4Z" transform="translate(-387.33 -248.81)"/></svg>