<svg id="Layer_5" data-name="Layer 5" xmlns="http://www.w3.org/2000/svg" viewBox="0 0 105.57 105.57"><title>SeatHeatLeft</title><path d="M224.43,202.54v8.66a9.3,9.3,0,0,0,7.16,9,11.77,11.77,0,0,0-1.11,9.39l11.1,69.21H330V275.26a13.39,13.39,0,0,0-12.24-13.35A17.22,17.22,0,0,0,313,248.08l3.47-3.47H305.05V256l3.52-3.53a11.09,11.09,0,0,1,2.91,9.75l-9.73.72a17.23,17.23,0,0,0-4.68-14.84l3.48-3.47H289.17V256l3.53-3.53a11.11,11.11,0,0,1,2.61,10.95l-9.67.71a17.26,17.26,0,0,0-4.45-16l3.48-3.47H273.29V256l3.53-3.53A11.12,11.12,0,0,1,279,264.6l-10.64.79-15.1-42.86a11.92,11.92,0,0,0-3.7-5.47,9.21,9.21,0,0,0,2.09-5.86v-8.66a9.29,9.29,0,0,0-9.28-9.28H233.7A9.29,9.29,0,0,0,224.43,202.54Zm12.84,20.3a5.74,5.74,0,0,1,10.1,1.62l0,.09,16.69,47.36,10.08-.75a17.35,17.35,0,0,0,2.52,21.34l4.37-4.38a11.14,11.14,0,0,1,0-15.76,17.9,17.9,0,0,0,1.58-1.82l8.25-.61a17.32,17.32,0,0,0,1.69,22.57l4.37-4.38a11.14,11.14,0,0,1,0-15.76,17.2,17.2,0,0,0,2.43-3.06l8.42-.62a17.32,17.32,0,0,0,.67,23.82l4.37-4.38a11.15,11.15,0,0,1,0-15.76,17,17,0,0,0,3.14-4.29,7.21,7.21,0,0,1,7.87,7.19v17.39H246.86L236.51,228.2l-.07-.22A5.66,5.66,0,0,1,237.27,222.84Zm-6.66-20.3a3.1,3.1,0,0,1,3.09-3.09h8.66a3.1,3.1,0,0,1,3.1,3.09v8.66a3.09,3.09,0,0,1-3.1,3.09H233.7a3.09,3.09,0,0,1-3.09-3.09Z" transform="translate(-224.43 -193.26)"/></svg>