<svg id="Layer_3" data-name="Layer 3" xmlns="http://www.w3.org/2000/svg" xmlns:xlink="http://www.w3.org/1999/xlink" viewBox="0 0 66.7 138.41"><defs><clipPath id="clip-path" transform="translate(-364.65 -244.11)"><polygon points="387.1 345.84 397.86 356.6 408.61 345.84 387.1 345.84" style="fill:none"/></clipPath><clipPath id="clip-path-2" transform="translate(-364.65 -244.11)"><rect x="-83.85" y="-76.64" width="1124.85" height="1124.85" style="fill:none"/></clipPath><clipPath id="clip-path-3" transform="translate(-364.65 -244.11)"><rect x="373.12" y="325.4" width="51.63" height="51.63" style="fill:none"/></clipPath><clipPath id="clip-path-4" transform="translate(-364.65 -244.11)"><rect x="386.3" y="345.18" width="23.07" height="12.08" style="fill:none"/></clipPath><clipPath id="clip-path-5" transform="translate(-364.65 -244.11)"><polygon points="408.61 280.8 397.86 270.04 387.1 280.8 408.61 280.8" style="fill:none"/></clipPath><clipPath id="clip-path-7" transform="translate(-364.65 -244.11)"><rect x="373.12" y="249.61" width="51.63" height="51.63" style="fill:none"/></clipPath><clipPath id="clip-path-8" transform="translate(-364.65 -244.11)"><rect x="386.3" y="269.38" width="23.07" height="12.08" style="fill:none"/></clipPath></defs><title>Temperature</title><g style="clip-path:url(#clip-path)"><g style="clip-path:url(#clip-path-2)"><g style="isolation:isolate"><g style="clip-path:url(#clip-path-3)"><g style="clip-path:url(#clip-path-4)"><rect x="2.97" y="75.8" width="62.61" height="62.61" style="opacity:0.8700000047683716"/></g></g></g></g></g><g style="clip-path:url(#clip-path-5)"><g style="clip-path:url(#clip-path-2)"><g style="isolation:isolate"><g style="clip-path:url(#clip-path-7)"><g style="clip-path:url(#clip-path-8)"><rect x="2.97" width="62.61" height="62.61" style="opacity:0.8700000047683716"/></g></g></g></g></g><g style="clip-path:url(#clip-path-2)"><text transform="translate(0 85.68)" style="font-size:52.72752380371094px;font-family:AvenirNext-Bold, Avenir Next;font-weight:700;letter-spacing:-0.027003508268290642em">6<tspan x="32.64" y="0" style="letter-spacing:0.0000185209247381966em">5</tspan></text></g></svg>