<svg id="Layer_3" data-name="Layer 3" xmlns="http://www.w3.org/2000/svg" xmlns:xlink="http://www.w3.org/1999/xlink" viewBox="0 0 60.72 126"><defs><clipPath id="clip-path" transform="translate(-360.28 -329.36)"><polygon points="380.71 421.96 390.5 431.75 400.3 421.96 380.71 421.96" style="fill:none"/></clipPath><clipPath id="clip-path-2" transform="translate(-360.28 -329.36)"><rect x="-182.02" y="0.36" width="1024" height="1024" style="fill:none"/></clipPath><clipPath id="clip-path-3" transform="translate(-360.28 -329.36)"><rect x="367.98" y="403.36" width="47" height="47" style="fill:none"/></clipPath><clipPath id="clip-path-4" transform="translate(-360.28 -329.36)"><rect x="379.98" y="421.36" width="21" height="11" style="fill:none"/></clipPath><clipPath id="clip-path-5" transform="translate(-360.28 -329.36)"><polygon points="400.3 362.75 390.5 352.96 380.71 362.75 400.3 362.75" style="fill:none"/></clipPath><clipPath id="clip-path-7" transform="translate(-360.28 -329.36)"><rect x="367.98" y="334.36" width="47" height="47" style="fill:none"/></clipPath><clipPath id="clip-path-8" transform="translate(-360.28 -329.36)"><rect x="379.98" y="352.36" width="21" height="11" style="fill:none"/></clipPath></defs><title>Volume</title><g style="clip-path:url(#clip-path)"><g style="clip-path:url(#clip-path-2)"><g style="isolation:isolate"><g style="clip-path:url(#clip-path-3)"><g style="clip-path:url(#clip-path-4)"><rect x="2.71" y="69" width="57" height="57" style="opacity:0.8700000047683716"/></g></g></g></g></g><g style="clip-path:url(#clip-path-5)"><g style="clip-path:url(#clip-path-2)"><g style="isolation:isolate"><g style="clip-path:url(#clip-path-7)"><g style="clip-path:url(#clip-path-8)"><rect x="2.71" width="57" height="57" style="opacity:0.8700000047683716"/></g></g></g></g></g><g style="clip-path:url(#clip-path-2)"><text transform="translate(0 78)" style="font-size:48px;font-family:AvenirNext-Bold, Avenir Next;font-weight:700"><tspan style="letter-spacing:-0.026997884114583332em">2</tspan><tspan x="29.71" y="0">3</tspan></text></g></svg>