<svg xmlns="http://www.w3.org/2000/svg" viewBox="0 0 583.99 282.54"><defs><style>.cls-1{fill:#1c75bc;}.cls-2{fill:#2b3990;}.cls-3{fill:#27aae1;}.cls-4{fill:#262262;}.cls-5{fill:#e6e7e8;}.cls-6{fill:#fff;}.cls-7{fill:#bcbec0;}.cls-8{fill:#808285;}.cls-10,.cls-9{fill:#fff200;}.cls-10{stroke:#fff200;stroke-miterlimit:10;stroke-width:9px;}</style></defs><g id="Layer_10" data-name="Layer 10"><path class="cls-1" d="M30.71,1.33h82.63a26,26,0,0,1,26,26V113a26,26,0,0,1-26,26H27.71a26,26,0,0,1-26-26V30.33a29,29,0,0,1,29-29Z"/><path class="cls-1" d="M177.75,1.33h82.63a26,26,0,0,1,26,26V113a26,26,0,0,1-26,26H174.75a26,26,0,0,1-26-26V30.33A29,29,0,0,1,177.75,1.33Z"/><path class="cls-2" d="M327.5,1.33h82.63a26,26,0,0,1,26,26V113a26,26,0,0,1-26,26H324.5a26,26,0,0,1-26-26V30.33a29,29,0,0,1,29-29Z"/><path class="cls-3" d="M475.36,0H558a26,26,0,0,1,26,26v85.63a26,26,0,0,1-26,26H472.36a26,26,0,0,1-26-26V29A29,29,0,0,1,475.36,0Z"/><path class="cls-3" d="M475.36,144.62H558a26,26,0,0,1,26,26v85.63a26,26,0,0,1-26,26H472.36a26,26,0,0,1-26-26V173.62A29,29,0,0,1,475.36,144.62Z"/><path class="cls-1" d="M326.58,144.91H409.2a26,26,0,0,1,26,26v85.63a26,26,0,0,1-26,26H323.58a26,26,0,0,1-26-26V173.91A29,29,0,0,1,326.58,144.91Z"/><path class="cls-4" d="M29,144.91h82.63a26,26,0,0,1,26,26v85.63a26,26,0,0,1-26,26H26a26,26,0,0,1-26-26V173.91A29,29,0,0,1,29,144.91Z"/><path class="cls-3" d="M180.06,144h82.63a26,26,0,0,1,26,26v85.63a26,26,0,0,1-26,26H177.06a26,26,0,0,1-26-26V173A29,29,0,0,1,180.06,144Z"/><path class="cls-5" d="M274.44,324.43a7.88,7.88,0,0,0-1.69.18,10.12,10.12,0,0,0-4.7-6.79,15.57,15.57,0,0,0-12.46-6.9,20.67,20.67,0,0,0-15-7.47A18.41,18.41,0,0,0,205.8,307a22.22,22.22,0,0,0-5.08-.59c-9.39,0-17.14,5.88-18.34,13.51a18.68,18.68,0,0,0-9.33,5,8.15,8.15,0,1,0,5.3,14.95,26.51,26.51,0,0,0,9.74,2.15v0h68.17V342a15.32,15.32,0,0,0,3.66-.72,10,10,0,0,0,10.93-1.41,8,8,0,0,0,3.59.84,8.15,8.15,0,0,0,0-16.29Z" transform="translate(-153.67 -269.4)"/><path class="cls-6" d="M719.09,330.53a7.79,7.79,0,0,0-1.68.18,10.15,10.15,0,0,0-4.7-6.79,15.57,15.57,0,0,0-12.46-6.9,20.64,20.64,0,0,0-15-7.47,18.41,18.41,0,0,0-34.85,3.54,22.07,22.07,0,0,0-5.07-.59c-9.39,0-17.14,5.88-18.34,13.51a18.68,18.68,0,0,0-9.33,5A8.15,8.15,0,1,0,623,346a26.31,26.31,0,0,0,9.73,2.14v0h68.18v-.05a15.32,15.32,0,0,0,3.66-.72A10,10,0,0,0,715.51,346a8,8,0,0,0,3.58.84,8.15,8.15,0,1,0,0-16.29Z" transform="translate(-153.67 -269.4)"/><path class="cls-6" d="M423.4,474.31a8.39,8.39,0,0,0-1.68.18A10.13,10.13,0,0,0,417,467.7a15.56,15.56,0,0,0-12.46-6.9,20.67,20.67,0,0,0-14.95-7.47,18.41,18.41,0,0,0-34.84,3.55,21.53,21.53,0,0,0-5.07-.6c-9.39,0-17.15,5.88-18.35,13.51a18.53,18.53,0,0,0-9.32,5,8.14,8.14,0,1,0,5.29,14.94,26.36,26.36,0,0,0,9.74,2.15v0h68.18v-.05a15.23,15.23,0,0,0,3.65-.71,10.2,10.2,0,0,0,4.38,1,10.09,10.09,0,0,0,6.55-2.41,8.15,8.15,0,1,0,3.59-15.46Z" transform="translate(-153.67 -269.4)"/><path class="cls-6" d="M575.37,487.24a5.32,5.32,0,0,0-1.07.11,6.46,6.46,0,0,0-3-4.33,9.94,9.94,0,0,0-8-4.41,13.13,13.13,0,0,0-9.54-4.76,11.74,11.74,0,0,0-22.23,2.26,13.75,13.75,0,0,0-3.24-.38c-6,0-10.94,3.75-11.71,8.62a11.94,11.94,0,0,0-5.95,3.21,5.2,5.2,0,1,0,3.38,9.54,16.78,16.78,0,0,0,6.22,1.37h43.51v0a10.12,10.12,0,0,0,2.33-.45,6.43,6.43,0,0,0,7-.9,5.2,5.2,0,1,0,2.29-9.86Z" transform="translate(-153.67 -269.4)"/><path class="cls-6" d="M550.85,443.9a4.68,4.68,0,0,0-1.07.12,6.52,6.52,0,0,0-3-4.34,9.91,9.91,0,0,0-7.95-4.4,13.18,13.18,0,0,0-9.54-4.77A11.75,11.75,0,0,0,507,432.78a13.61,13.61,0,0,0-3.23-.38c-6,0-10.94,3.75-11.71,8.62a11.86,11.86,0,0,0-6,3.21,5.2,5.2,0,1,0,3.38,9.54,16.77,16.77,0,0,0,6.21,1.37h43.51v0a9.91,9.91,0,0,0,2.33-.45,6.44,6.44,0,0,0,7-.9,5.2,5.2,0,1,0,2.29-9.87Z" transform="translate(-153.67 -269.4)"/><path class="cls-6" d="M527.27,487.66a4.83,4.83,0,0,0-1.08.12,6.47,6.47,0,0,0-3-4.34,9.93,9.93,0,0,0-8-4.4,13.21,13.21,0,0,0-9.54-4.77,11.75,11.75,0,0,0-22.24,2.27,13.69,13.69,0,0,0-3.24-.38c-6,0-10.94,3.75-11.7,8.62a11.86,11.86,0,0,0-5.95,3.21,5.2,5.2,0,1,0,3.37,9.54,16.82,16.82,0,0,0,6.22,1.37h43.51v0a9.91,9.91,0,0,0,2.33-.45,6.44,6.44,0,0,0,7-.9,5.2,5.2,0,1,0,2.29-9.87Z" transform="translate(-153.67 -269.4)"/><path class="cls-3" d="M194.63,361.29a5.43,5.43,0,1,1-10.85,0c0-3,2.43-16.21,5.43-16.21S194.63,358.3,194.63,361.29Z" transform="translate(-153.67 -269.4)"/><path class="cls-3" d="M212.57,378.1a5.43,5.43,0,1,1-10.85,0c0-3,2.43-16.22,5.43-16.22S212.57,375.1,212.57,378.1Z" transform="translate(-153.67 -269.4)"/><path class="cls-3" d="M230.51,359.53a5.43,5.43,0,1,1-10.85,0c0-3,2.43-16.22,5.43-16.22S230.51,356.53,230.51,359.53Z" transform="translate(-153.67 -269.4)"/><path class="cls-3" d="M248.46,378.48a5.43,5.43,0,0,1-10.86,0c0-3,2.43-16.21,5.43-16.21S248.46,375.49,248.46,378.48Z" transform="translate(-153.67 -269.4)"/><path class="cls-3" d="M266.4,361.29a5.43,5.43,0,1,1-10.86,0c0-3,2.43-16.21,5.43-16.21S266.4,358.3,266.4,361.29Z" transform="translate(-153.67 -269.4)"/><path class="cls-7" d="M423.1,326.5a8.26,8.26,0,0,0-1.73.18,10.51,10.51,0,0,0-4.86-7,16.06,16.06,0,0,0-12.86-7.12,21.31,21.31,0,0,0-15.43-7.71,19,19,0,0,0-36,3.66,22.44,22.44,0,0,0-5.24-.62c-9.69,0-17.7,6.08-18.94,13.95a19.15,19.15,0,0,0-9.62,5.2,8.4,8.4,0,0,0,.92,16.76,8.31,8.31,0,0,0,4.54-1.34A27.1,27.1,0,0,0,334,344.67v0h70.38v-.05a15.73,15.73,0,0,0,3.77-.73,10.43,10.43,0,0,0,11.28-1.46,8.41,8.41,0,1,0,3.7-15.95Z" transform="translate(-153.67 -269.4)"/><path class="cls-3" d="M357.14,359.07c1.26,2.69.83,5.55-1,6.39s-4.26-.66-5.52-3.35-5.35-15.24-3.56-16.08S355.89,356.38,357.14,359.07Z" transform="translate(-153.67 -269.4)"/><path class="cls-3" d="M372.44,377.78c1.25,2.69.82,5.55-1,6.39s-4.27-.67-5.53-3.36-5.35-15.24-3.56-16.08S371.18,375.08,372.44,377.78Z" transform="translate(-153.67 -269.4)"/><path class="cls-3" d="M390.92,358.91c1.26,2.69.83,5.55-1,6.39s-4.26-.66-5.52-3.35-5.35-15.24-3.56-16.08S389.66,356.22,390.92,358.91Z" transform="translate(-153.67 -269.4)"/><path class="cls-3" d="M389.56,377.51c1.25,2.69.82,5.55-1,6.39s-4.27-.66-5.53-3.35-5.35-15.24-3.56-16.08S388.3,374.82,389.56,377.51Z" transform="translate(-153.67 -269.4)"/><path class="cls-3" d="M411.12,358.47c1.25,2.69.82,5.55-1,6.39s-4.27-.66-5.53-3.35-5.35-15.24-3.56-16.08S409.86,355.78,411.12,358.47Z" transform="translate(-153.67 -269.4)"/><path class="cls-3" d="M355.75,377.88c1.25,2.69.82,5.55-1,6.39s-4.27-.67-5.53-3.36-5.35-15.24-3.56-16.08S354.49,375.18,355.75,377.88Z" transform="translate(-153.67 -269.4)"/><path class="cls-3" d="M406.91,374.75c1.25,2.69.82,5.55-1,6.39s-4.27-.67-5.53-3.36-5.35-15.24-3.56-16.08S405.65,372.06,406.91,374.75Z" transform="translate(-153.67 -269.4)"/><path class="cls-3" d="M340.1,359.27c1.25,2.7.82,5.56-1,6.39s-4.27-.66-5.53-3.35-5.35-15.24-3.56-16.08S338.84,356.58,340.1,359.27Z" transform="translate(-153.67 -269.4)"/><path class="cls-3" d="M373.51,359.24c1.26,2.69.83,5.55-1,6.39s-4.26-.66-5.52-3.35-5.35-15.24-3.56-16.08S372.26,356.55,373.51,359.24Z" transform="translate(-153.67 -269.4)"/><path class="cls-8" d="M573.33,328.49a8.55,8.55,0,0,0-1.76.19,10.56,10.56,0,0,0-4.91-7.09,16.24,16.24,0,0,0-13-7.2,21.55,21.55,0,0,0-15.6-7.8,19.21,19.21,0,0,0-36.36,3.7,23,23,0,0,0-5.3-.62c-9.8,0-17.89,6.14-19.14,14.1a19.3,19.3,0,0,0-9.73,5.26,8.5,8.5,0,1,0,5.52,15.59,27.44,27.44,0,0,0,10.16,2.24v0h71.15v-.05a16.58,16.58,0,0,0,3.82-.75,10.55,10.55,0,0,0,11.4-1.47,8.5,8.5,0,1,0,3.75-16.13Z" transform="translate(-153.67 -269.4)"/><path class="cls-3" d="M540.79,361.26c1.28,2.72.84,5.61-1,6.46s-4.31-.67-5.58-3.39-5.41-15.41-3.6-16.25S539.52,358.54,540.79,361.26Z" transform="translate(-153.67 -269.4)"/><path class="cls-3" d="M536.2,376.85c1.28,2.72.84,5.62-1,6.46s-4.31-.67-5.58-3.39-5.41-15.4-3.6-16.25S534.93,374.13,536.2,376.85Z" transform="translate(-153.67 -269.4)"/><path class="cls-3" d="M561.21,360.81c1.27,2.72.83,5.62-1,6.46s-4.32-.67-5.59-3.39-5.41-15.4-3.59-16.25S559.94,358.09,561.21,360.81Z" transform="translate(-153.67 -269.4)"/><path class="cls-3" d="M505.23,377.27c1.27,2.72.84,5.61-1,6.46s-4.31-.67-5.58-3.4-5.41-15.4-3.6-16.25S504,374.55,505.23,377.27Z" transform="translate(-153.67 -269.4)"/><path class="cls-3" d="M557,377.27c1.27,2.72.83,5.61-1,6.46s-4.31-.67-5.58-3.4-5.41-15.4-3.6-16.25S555.68,374.55,557,377.27Z" transform="translate(-153.67 -269.4)"/><path class="cls-3" d="M489.41,361.62c1.27,2.73.84,5.62-1,6.46s-4.31-.67-5.58-3.39-5.41-15.4-3.6-16.25S488.14,358.9,489.41,361.62Z" transform="translate(-153.67 -269.4)"/><polygon class="cls-9" points="342.17 77.74 368.9 77.49 354.89 83.56 364.84 90.38 360.99 99.47 371.9 109.87 351.01 101.35 357.57 93.58 338.96 77.49 342.17 77.74"/><circle class="cls-10" cx="547.38" cy="191.28" r="20.28"/><path class="cls-9" d="M228.41,521.12a34.44,34.44,0,1,0,0-68.88h-.25a38.61,38.61,0,1,1-17.26,64.08A34.25,34.25,0,0,0,228.41,521.12Z" transform="translate(-153.67 -269.4)"/><circle class="cls-6" cx="48.41" cy="165.55" r="4.7"/><circle class="cls-6" cx="117.43" cy="164.55" r="4.7"/><circle class="cls-6" cx="128.91" cy="192.74" r="4.7"/><circle class="cls-6" cx="72.14" cy="223.13" r="4.7"/><circle class="cls-6" cx="25.41" cy="209.02" r="4.7"/><circle class="cls-6" cx="17.33" cy="252.1" r="4.7"/><path class="cls-6" d="M719.09,480.77a7.79,7.79,0,0,0-1.68.18,10.15,10.15,0,0,0-4.7-6.79,15.57,15.57,0,0,0-12.46-6.9,20.67,20.67,0,0,0-15-7.47,18.41,18.41,0,0,0-34.85,3.54,22.07,22.07,0,0,0-5.07-.59c-9.39,0-17.14,5.88-18.34,13.51a18.68,18.68,0,0,0-9.33,5,8.15,8.15,0,1,0,5.3,15,26.31,26.31,0,0,0,9.73,2.15v0h68.18v0a15.82,15.82,0,0,0,3.66-.71,10.1,10.1,0,0,0,10.93-1.41,8.15,8.15,0,1,0,3.58-15.46Z" transform="translate(-153.67 -269.4)"/></g></svg>