<svg xmlns="http://www.w3.org/2000/svg" viewBox="0 0 139 285.91"><defs><style>.cls-1{fill:#231f20;}.cls-2{fill:#00aeef;}.cls-3{fill:#ed1c24;}</style></defs><g id="Layer_9" data-name="Layer 9"><path class="cls-1" d="M30.37,0H113a26,26,0,0,1,26,26v85.63a26,26,0,0,1-26,26H27.37a26,26,0,0,1-26-26V29A29,29,0,0,1,30.37,0Z"/><path class="cls-1" d="M29,148.28h82.63a26,26,0,0,1,26,26v85.63a26,26,0,0,1-26,26H26a26,26,0,0,1-26-26V177.28A29,29,0,0,1,29,148.28Z"/><polygon class="cls-2" points="69.56 16.71 92.94 47.19 116.31 77.67 69.56 77.67 22.82 77.67 46.19 47.19 69.56 16.71"/><rect class="cls-2" x="41.9" y="68.3" width="55.33" height="55.33"/><polygon class="cls-3" points="69.81 274.91 46.44 244.43 23.07 213.94 69.81 213.94 116.56 213.94 93.19 244.43 69.81 274.91"/><rect class="cls-3" x="418.31" y="435.7" width="55.33" height="55.33" transform="translate(515.8 659.02) rotate(180)"/></g></svg>