<svg id="Layer_3" data-name="Layer 3" xmlns="http://www.w3.org/2000/svg" viewBox="0 0 202.39 192.08"><defs><style>.cls-1{fill:#39b54a;stroke:#006838;stroke-miterlimit:10;stroke-width:6px;}.cls-2{fill:#fff;}</style></defs><rect class="cls-1" x="3" y="3" width="196.39" height="186.08" rx="23"/><path class="cls-2" d="M412.25,411.7c22-14.74,24.36-23.14,24.36-23.14s4.6-3.59-11.19-19.43-22.12-7.44-22.12-7.44-2.17,1.73-8.29,12c-7.54,12.64-21.64-1.25-36.21-16.26a52.3,52.3,0,0,1-12.37-20.67s-.66-6.88,4.08-8.54S363.94,318,363.94,318s3-8.27-10.53-22.73-19.62-8.54-19.62-8.54-14.32,10.88-20.53,24c0,0,1.84,30.86,30.14,64.33S412.25,411.7,412.25,411.7Z" transform="translate(-274.05 -252.58)"/></svg>