<svg id="Layer_1" data-name="Layer 1" xmlns="http://www.w3.org/2000/svg" viewBox="0 0 202.39 192.08"><defs><style>.cls-1{fill:#fbb040;stroke:#f7941d;stroke-width:6px;}.cls-1,.cls-2,.cls-3{stroke-miterlimit:10;}.cls-2{fill:#e44e9c;stroke-width:14px;}.cls-2,.cls-3{stroke:#fff;}.cls-3{fill:none;stroke-width:5px;}.cls-4{fill:#fff;}</style></defs><rect class="cls-1" x="3" y="3" width="196.39" height="186.08" rx="23"/><ellipse class="cls-2" cx="101.57" cy="101.7" rx="71.91" ry="50.52"/><path class="cls-2" d="M509.66,278.71S491.84,274,482,260.57s0,44,0,44" transform="translate(-448.77 -218.67)"/><path class="cls-2" d="M590.28,278.71S608.1,274,617.9,260.57s0,44,0,44" transform="translate(-448.77 -218.67)"/><polyline class="cls-3" points="58.41 102.42 78.84 96.62 58.41 90.82"/><polyline class="cls-3" points="123.3 101.68 143.73 95.88 123.3 90.08"/><path class="cls-4" d="M554.47,342.07a22,22,0,0,1-13.88.6,12.91,12.91,0,0,0,10.6,5.05c6.78,0,12.28-4.56,12.28-10.18a8.5,8.5,0,0,0-.08-1.14A23.42,23.42,0,0,1,554.47,342.07Z" transform="translate(-448.77 -218.67)"/></svg>