<svg id="Layer_2" data-name="Layer 2" xmlns="http://www.w3.org/2000/svg" viewBox="0 0 202.39 192.08"><defs><style>.cls-1{fill:#ba1e75;stroke:#5d0d3f;stroke-miterlimit:10;stroke-width:6px;}.cls-2{fill:#fbb040;}.cls-3{fill:#39b54a;}.cls-4{fill:#f37434;}.cls-5{fill:#054a75;}.cls-6{fill:#f5a2c6;}</style></defs><rect class="cls-1" x="3" y="3" width="196.39" height="186.08" rx="23"/><ellipse class="cls-2" cx="100.18" cy="113.09" rx="49.41" ry="48.33"/><path class="cls-3" d="M467.83,268.58c-7.09,7-8.46,18.23-4.82,30a16.91,16.91,0,0,1,4.7-11.3c10.2-10.07,33.51-3,52.06,15.8,8.06,8.17,13.9,17.21,17.08,25.65,6.53-13,.93-33.33-14.52-49C504.4,261.55,480,256.56,467.83,268.58Z" transform="translate(-361.3 -228.79)"/><path class="cls-3" d="M457.78,266.76c7.09,7,8.45,18.23,4.82,30-.3-4.56-1.82-8.46-4.7-11.3-10.2-10.07-33.51-3-52.06,15.8-8.07,8.17-13.9,17.21-17.09,25.65-6.52-13-.93-33.33,14.52-49C421.2,259.73,445.61,254.74,457.78,266.76Z" transform="translate(-361.3 -228.79)"/><path class="cls-4" d="M423.2,322.41c14.16-5.53,27.26-6.32,30.48-2.05a5.8,5.8,0,0,0-.3-3.05c-2-5.09-11.24-6.24-20.67-2.56-5.39,2.11-9.67,5.34-12,8.67C421.54,323.07,422.36,322.73,423.2,322.41Z" transform="translate(-361.3 -228.79)"/><path class="cls-4" d="M466.8,318.69c14.16-5.52,27.26-6.31,30.48-2.05a5.72,5.72,0,0,0-.3-3.05c-2-5.09-11.23-6.23-20.66-2.55-5.4,2.1-9.68,5.33-12,8.66C465.14,319.36,466,319,466.8,318.69Z" transform="translate(-361.3 -228.79)"/><ellipse class="cls-5" cx="103.03" cy="147.53" rx="3.28" ry="7.51"/><circle class="cls-6" cx="72.18" cy="125.84" r="12.75"/><circle class="cls-6" cx="126.24" cy="123.56" r="12.75"/><circle class="cls-5" cx="75.94" cy="103.86" r="3.59"/><circle class="cls-5" cx="122.65" cy="99" r="6.77"/></svg>