<svg id="Layer_5" data-name="Layer 5" xmlns="http://www.w3.org/2000/svg" viewBox="0 0 202.39 192.08"><defs><style>.cls-1,.cls-5{fill:#00a9bb;}.cls-1{stroke:#1c75bc;stroke-width:6px;}.cls-1,.cls-4{stroke-miterlimit:10;}.cls-2{fill:#fff;}.cls-3,.cls-4{fill:#fff200;}.cls-4{stroke:#10a8b2;stroke-width:7px;}</style></defs><rect class="cls-1" x="3" y="3" width="196.39" height="186.08" rx="23"/><circle class="cls-2" cx="101.2" cy="96.04" r="58.83"/><path class="cls-3" d="M385.41,357.63c-6.36-2.33-12-4.75-16.06-6.6s-6.47-3.15-6.35-3.67,2.93-.25,7.34.41,10.43,1.75,17,3.3a93.23,93.23,0,0,1,16.57,5.24c4.1,1.87,6.4,3.78,6,5.08s-3.41,1.62-7.84.93A92.62,92.62,0,0,1,385.41,357.63Z" transform="translate(-228.92 -241.46)"/><path class="cls-3" d="M375.17,375.31c-5.18-4.36-9.62-8.55-12.81-11.69s-5-5.21-4.7-5.63,2.82.75,6.75,2.89,9.19,5.23,14.85,8.95A92.8,92.8,0,0,1,393,380.44c3.2,3.15,4.72,5.75,3.94,6.84s-3.75.35-7.69-1.83A93.92,93.92,0,0,1,375.17,375.31Z" transform="translate(-228.92 -241.46)"/><path class="cls-3" d="M359.52,388.45c-3.38-5.86-6.15-11.34-8.06-15.35s-3-6.62-2.5-6.91,2.39,1.67,5.35,5,6.88,8.06,10.93,13.48a93.58,93.58,0,0,1,9.31,14.65c1.93,4,2.51,7.05,1.37,7.77s-3.63-.92-6.6-4.32A93.86,93.86,0,0,1,359.52,388.45Z" transform="translate(-228.92 -241.46)"/><path class="cls-3" d="M340.33,395.43c-1.16-6.66-1.88-12.76-2.3-17.19s-.51-7.23,0-7.34,1.67,2.42,3.3,6.56,3.69,9.93,5.64,16.4a94.11,94.11,0,0,1,3.71,17c.43,4.49-.07,7.48-1.39,7.77s-3.09-2.09-4.72-6.32A94.27,94.27,0,0,1,340.33,395.43Z" transform="translate(-228.92 -241.46)"/><path class="cls-3" d="M319.9,395.43c1.17-6.66,2.57-12.63,3.68-16.94s2-7,2.52-6.9.76,2.82.88,7.28.09,10.6-.29,17.36a94.17,94.17,0,0,1-2.28,17.2c-1.12,4.35-2.61,7-3.94,6.83s-2.19-3-2.28-7.54A93.08,93.08,0,0,1,319.9,395.43Z" transform="translate(-228.92 -241.46)"/><path class="cls-3" d="M300.7,388.45c3.39-5.86,6.76-11,9.29-14.65s4.25-5.87,4.73-5.61-.26,2.92-1.69,7.14-3.55,10-6.22,16.2a93.69,93.69,0,0,1-8.06,15.37c-2.55,3.71-4.86,5.69-6.05,5.06s-1-3.59.45-7.87A93,93,0,0,1,300.7,388.45Z" transform="translate(-228.92 -241.46)"/><path class="cls-3" d="M285.05,375.31c5.18-4.34,10.1-8,13.73-10.61s6-4,6.37-3.65-1.26,2.68-4,6.14-6.74,8.17-11.38,13.09A94.27,94.27,0,0,1,276.92,392c-3.68,2.63-6.48,3.66-7.41,2.69s.29-3.74,3.12-7.25A93.88,93.88,0,0,1,285.05,375.31Z" transform="translate(-228.92 -241.46)"/><path class="cls-3" d="M274.81,357.63c6.36-2.31,12.24-4.08,16.54-5.27s7-1.76,7.23-1.27-2.08,2.07-5.89,4.4-9.11,5.36-15.15,8.41a93.5,93.5,0,0,1-16.07,6.63c-4.32,1.2-7.33,1.22-7.88,0s1.57-3.43,5.41-5.75A92.73,92.73,0,0,1,274.81,357.63Z" transform="translate(-228.92 -241.46)"/><path class="cls-3" d="M271.28,337.5c6.76,0,12.9.35,17.34.71s7.18.76,7.22,1.31-2.65,1.24-7,2.12-10.4,1.9-17.13,2.69a94.15,94.15,0,0,1-17.35.7c-4.48-.35-7.31-1.37-7.41-2.71s2.66-2.66,7.06-3.53A93.72,93.72,0,0,1,271.28,337.5Z" transform="translate(-228.92 -241.46)"/><path class="cls-3" d="M274.81,317.37c6.36,2.33,12,4.75,16.06,6.6s6.48,3.15,6.35,3.67-2.93.25-7.34-.41-10.43-1.75-17-3.3a93.23,93.23,0,0,1-16.57-5.24c-4.1-1.87-6.4-3.78-6-5.08s3.41-1.62,7.84-.93A92.39,92.39,0,0,1,274.81,317.37Z" transform="translate(-228.92 -241.46)"/><path class="cls-3" d="M285.05,299.69c5.18,4.36,9.62,8.55,12.81,11.69s5,5.21,4.7,5.63-2.82-.75-6.74-2.89-9.2-5.23-14.86-8.95a93.34,93.34,0,0,1-13.75-10.61c-3.2-3.15-4.72-5.75-3.93-6.84s3.74-.35,7.68,1.83A93.41,93.41,0,0,1,285.05,299.69Z" transform="translate(-228.92 -241.46)"/><path class="cls-3" d="M300.7,286.55c3.38,5.86,6.15,11.34,8.06,15.35s3,6.62,2.51,6.91-2.39-1.67-5.36-5S299,295.73,295,290.31a93.42,93.42,0,0,1-9.3-14.65c-1.94-4-2.52-7.05-1.38-7.77s3.63.92,6.6,4.32A93.15,93.15,0,0,1,300.7,286.55Z" transform="translate(-228.92 -241.46)"/><path class="cls-3" d="M319.9,279.57c1.15,6.66,1.87,12.76,2.29,17.19s.51,7.23,0,7.34-1.67-2.42-3.29-6.56-3.7-9.93-5.64-16.4a93.38,93.38,0,0,1-3.72-17c-.43-4.49.07-7.48,1.39-7.77s3.09,2.09,4.72,6.32A93.34,93.34,0,0,1,319.9,279.57Z" transform="translate(-228.92 -241.46)"/><path class="cls-3" d="M340.33,279.57c-1.18,6.66-2.58,12.63-3.69,16.94s-2,7-2.51,6.9-.77-2.82-.88-7.28-.1-10.6.28-17.36a93.2,93.2,0,0,1,2.29-17.2c1.11-4.35,2.6-7,3.94-6.83s2.18,3,2.28,7.54A94,94,0,0,1,340.33,279.57Z" transform="translate(-228.92 -241.46)"/><path class="cls-3" d="M359.52,286.55c-3.39,5.86-6.76,11-9.28,14.65s-4.26,5.87-4.74,5.61.27-2.92,1.69-7.14,3.55-10,6.23-16.2a93,93,0,0,1,8.05-15.37c2.55-3.71,4.86-5.69,6.06-5.06s1,3.59-.46,7.87A93,93,0,0,1,359.52,286.55Z" transform="translate(-228.92 -241.46)"/><path class="cls-3" d="M375.17,299.69c-5.18,4.34-10.1,8-13.73,10.61s-6,4-6.36,3.65,1.26-2.68,4-6.14,6.74-8.17,11.37-13.09A94.27,94.27,0,0,1,383.3,283c3.68-2.63,6.48-3.66,7.41-2.69s-.29,3.74-3.12,7.25A93.26,93.26,0,0,1,375.17,299.69Z" transform="translate(-228.92 -241.46)"/><path class="cls-3" d="M385.41,317.37c-6.35,2.31-12.24,4.08-16.54,5.27s-7,1.76-7.22,1.27,2.07-2.07,5.88-4.4,9.11-5.36,15.15-8.41a93.5,93.5,0,0,1,16.07-6.63c4.32-1.2,7.33-1.22,7.88,0s-1.57,3.43-5.41,5.75A92.73,92.73,0,0,1,385.41,317.37Z" transform="translate(-228.92 -241.46)"/><path class="cls-3" d="M388.94,337.5c-6.76,0-12.9-.35-17.34-.71s-7.18-.76-7.22-1.31,2.65-1.24,7-2.12,10.4-1.9,17.13-2.69a94.23,94.23,0,0,1,17.36-.7c4.47.35,7.3,1.37,7.4,2.71s-2.65,2.66-7.06,3.53A93.65,93.65,0,0,1,388.94,337.5Z" transform="translate(-228.92 -241.46)"/><circle class="cls-4" cx="101.2" cy="96.04" r="58.83"/><path class="cls-5" d="M303.35,323.17a13.68,13.68,0,0,1,13.3,10.5,14,14,0,0,0,.39-3.19,13.69,13.69,0,1,0-27.37,0,13.46,13.46,0,0,0,.39,3.19A13.66,13.66,0,0,1,303.35,323.17Z" transform="translate(-228.92 -241.46)"/><path class="cls-5" d="M356,323.17a13.68,13.68,0,0,1,13.3,10.5,14,14,0,0,0,.38-3.19,13.69,13.69,0,1,0-27.37,0,14,14,0,0,0,.39,3.19A13.68,13.68,0,0,1,356,323.17Z" transform="translate(-228.92 -241.46)"/></svg>