<svg xmlns="http://www.w3.org/2000/svg" viewBox="0 0 347.88 347.88"><defs><style>.cls-1{fill:#939598;stroke:#f7941d;}.cls-1,.cls-3,.cls-4,.cls-5,.cls-6,.cls-7,.cls-8,.cls-9{stroke-miterlimit:10;}.cls-2,.cls-9{fill:#130f35;}.cls-3{fill:#d1d3d4;stroke-width:0.5px;}.cls-3,.cls-4,.cls-5,.cls-6,.cls-7,.cls-8{stroke:#231f20;}.cls-4{fill:#f7941d;}.cls-5{fill:#f15a29;}.cls-6{fill:#231f20;}.cls-7{fill:#414042;}.cls-8{fill:#6d6e71;}.cls-9{stroke:#bcbec0;}.cls-10{fill:#fff;}</style></defs><g id="Layer_2" data-name="Layer 2"><circle class="cls-1" cx="173.94" cy="173.94" r="159.27"/><circle class="cls-2" cx="173.94" cy="173.94" r="135.82"/><path class="cls-3" d="M767,391.29c-2.1,3.82-6.61,5.1-9.69,3.11q-17.67-12.57-35.67-24.61c-3.15-2-5.24-4.15-3.88-6.6a3.05,3.05,0,0,1,3.14-1.55,12,12,0,0,1,4.52,1.54q19.51,9.36,39.32,18.19C768,383,769.21,387.54,767,391.29Z" transform="translate(-450.43 -136.08)"/><path class="cls-3" d="M707.28,451.69h0a8,8,0,0,1-5.73,1,6.23,6.23,0,0,1-4.21-3.15q-9.06-19.69-18.66-39.1a12.06,12.06,0,0,1-1.59-4.52,3.06,3.06,0,0,1,1.52-3.16h0c2.44-1.37,4.65.67,6.65,3.81q12.24,17.85,25,35.38a6.18,6.18,0,0,1,.69,5.2,7.53,7.53,0,0,1-1.32,2.54A8.52,8.52,0,0,1,707.28,451.69Z" transform="translate(-450.43 -136.08)"/><path class="cls-3" d="M625.29,474.18c-4.33-.06-7.7-3.14-7.51-6.83q2-21.62,3.44-43.24c.11-3.7,1-6.69,3.79-6.63h0c2.81-.08,3.7,2.89,3.85,6.59q1.64,21.6,3.89,43.19C633,471,629.64,474.09,625.29,474.18Z" transform="translate(-450.43 -136.08)"/><path class="cls-3" d="M543.09,452.65c-3.82-2.1-5.1-6.62-3.1-9.69q12.56-17.67,24.6-35.67c2-3.16,4.15-5.24,6.61-3.89h0a3.11,3.11,0,0,1,1.55,3.15,12.05,12.05,0,0,1-1.54,4.52q-9.37,19.51-18.2,39.32C551.37,453.69,546.85,454.85,543.09,452.65Z" transform="translate(-450.43 -136.08)"/><path class="cls-3" d="M482.7,392.93h0a7.88,7.88,0,0,1-1-5.74,6.19,6.19,0,0,1,3.15-4.2q19.7-9.06,39.1-18.66a12.24,12.24,0,0,1,4.51-1.6,3.08,3.08,0,0,1,3.16,1.52h0c1.37,2.45-.66,4.66-3.8,6.65q-17.86,12.25-35.39,25a6.18,6.18,0,0,1-5.2.68,7.45,7.45,0,0,1-2.54-1.32A8.62,8.62,0,0,1,482.7,392.93Z" transform="translate(-450.43 -136.08)"/><path class="cls-3" d="M460.2,310.94c.06-4.34,3.14-7.7,6.84-7.51q21.6,2,43.23,3.44c3.7.11,6.7,1,6.63,3.79h0c.08,2.81-2.88,3.7-6.58,3.85q-21.61,1.64-43.2,3.88C463.44,318.62,460.29,315.28,460.2,310.94Z" transform="translate(-450.43 -136.08)"/><path class="cls-3" d="M481.74,228.74h0c2.1-3.82,6.61-5.1,9.69-3.1q17.67,12.56,35.67,24.6c3.15,1.95,5.24,4.15,3.88,6.6h0a3.05,3.05,0,0,1-3.14,1.55,11.69,11.69,0,0,1-4.53-1.54Q503.8,247.49,484,238.66C480.69,237,479.53,232.49,481.74,228.74Z" transform="translate(-450.43 -136.08)"/><path class="cls-3" d="M541.45,168.34h0a8,8,0,0,1,5.74-1,6.24,6.24,0,0,1,4.21,3.16q9.06,19.68,18.65,39.09a11.92,11.92,0,0,1,1.6,4.52,3.06,3.06,0,0,1-1.52,3.16h0c-2.45,1.37-4.65-.66-6.65-3.81q-12.24-17.85-25-35.38a6.18,6.18,0,0,1-.69-5.2,7.53,7.53,0,0,1,1.32-2.54A9,9,0,0,1,541.45,168.34Z" transform="translate(-450.43 -136.08)"/><path class="cls-3" d="M623.44,145.85c4.34.06,7.7,3.14,7.52,6.84q-2,21.6-3.44,43.23c-.12,3.7-1,6.69-3.79,6.63h0c-2.82.08-3.7-2.89-3.86-6.59q-1.64-21.6-3.88-43.19C615.76,149.08,619.1,145.94,623.44,145.85Z" transform="translate(-450.43 -136.08)"/><path class="cls-3" d="M705.65,167.38c3.81,2.1,5.09,6.62,3.1,9.7q-12.57,17.67-24.6,35.66c-2,3.16-4.15,5.24-6.61,3.89h0a3.07,3.07,0,0,1-1.55-3.14,12,12,0,0,1,1.54-4.53q9.38-19.52,18.19-39.32C697.37,166.34,701.89,165.18,705.65,167.38Z" transform="translate(-450.43 -136.08)"/><path class="cls-3" d="M766,227.1h0a7.92,7.92,0,0,1,1,5.74,6.23,6.23,0,0,1-3.15,4.21q-19.7,9-39.1,18.65a12.06,12.06,0,0,1-4.51,1.6,3.07,3.07,0,0,1-3.16-1.52h0c-1.38-2.45.66-4.65,3.8-6.65q17.87-12.25,35.39-25a6.14,6.14,0,0,1,5.2-.69,7.45,7.45,0,0,1,2.54,1.32A8.77,8.77,0,0,1,766,227.1Z" transform="translate(-450.43 -136.08)"/><path class="cls-3" d="M788.54,309.09h0c-.06,4.34-3.14,7.7-6.84,7.51q-21.6-2-43.24-3.44c-3.69-.11-6.69-1-6.62-3.79h0c-.08-2.81,2.88-3.7,6.58-3.85q21.62-1.63,43.19-3.88C785.3,301.41,788.45,304.75,788.54,309.09Z" transform="translate(-450.43 -136.08)"/><path class="cls-4" d="M622.18,163.32h4.37c4.59,0,4.92,6.89,4.92,15.39L636.86,318c0,8.5-5.72,15.39-10.31,15.39h-4.37c-4.58,0-10.3-6.89-10.3-15.39l5.39-139.32C617.27,170.21,617.6,163.32,622.18,163.32Z" transform="translate(-450.43 -136.08)"/><path class="cls-5" d="M623.17,167.12h2.4c2.52,0,2.7,6.58,2.7,14.7l3,133.09c0,8.12-3.14,14.71-5.66,14.71h-2.4c-2.52,0-5.66-6.59-5.66-14.71l3-133.09C620.47,173.7,620.65,167.12,623.17,167.12Z" transform="translate(-450.43 -136.08)"/><path class="cls-6" d="M482.11,384a159.32,159.32,0,0,0,280.52,0Z" transform="translate(-450.43 -136.08)"/><path class="cls-7" d="M624.37,136.58A173.44,173.44,0,1,0,797.81,310,173.44,173.44,0,0,0,624.37,136.58Zm0,323.94A150.51,150.51,0,1,1,774.87,310,150.5,150.5,0,0,1,624.37,460.52Z" transform="translate(-450.43 -136.08)"/><circle class="cls-8" cx="173.94" cy="173.94" r="30.67"/><rect class="cls-9" x="123.42" y="264.52" width="101.03" height="25.26"/><path class="cls-10" d="M500.85,353a7.15,7.15,0,0,1-2-5.33V336.08a7.18,7.18,0,0,1,2-5.36,9.51,9.51,0,0,1,11.39,0,7.16,7.16,0,0,1,2,5.37V347.7a7.15,7.15,0,0,1-2,5.35,9.41,9.41,0,0,1-11.39,0Zm7.84-3.71a5,5,0,0,0,.69-2.86v-9.15a5,5,0,0,0-.69-2.86,2.81,2.81,0,0,0-4.28,0,5,5,0,0,0-.69,2.86v9.15a5,5,0,0,0,.69,2.86,2.81,2.81,0,0,0,4.28,0Z" transform="translate(-450.43 -136.08)"/><path class="cls-10" d="M506.27,293.63h-4.81v-19.9l-3.11,1.18V269.8l3.81-1.73h4.11Z" transform="translate(-450.43 -136.08)"/><path class="cls-10" d="M513.32,292a7.15,7.15,0,0,1-2-5.33V275a7.18,7.18,0,0,1,2-5.36,9.47,9.47,0,0,1,11.38,0,7.13,7.13,0,0,1,2,5.36v11.62a7.15,7.15,0,0,1-2,5.35,9.41,9.41,0,0,1-11.39,0Zm7.84-3.71a5,5,0,0,0,.69-2.85v-9.16a5,5,0,0,0-.69-2.86,2.41,2.41,0,0,0-2.14-1,2.44,2.44,0,0,0-2.15,1,5.05,5.05,0,0,0-.68,2.86v9.16a5,5,0,0,0,.68,2.85,2.44,2.44,0,0,0,2.15,1A2.41,2.41,0,0,0,521.16,288.26Z" transform="translate(-450.43 -136.08)"/><path class="cls-10" d="M526.68,239.35l8.77-11.53a6.66,6.66,0,0,0,.93-1.59,4.23,4.23,0,0,0,.32-1.52v0a2,2,0,0,0-.67-1.6,2.89,2.89,0,0,0-1.9-.56,2.54,2.54,0,0,0-1.93.78,3.83,3.83,0,0,0-.9,2.23v0h-4.94v0a9.34,9.34,0,0,1,1.16-4.12,6.69,6.69,0,0,1,2.68-2.62,8,8,0,0,1,3.9-.91,9.79,9.79,0,0,1,4.09.78,5.7,5.7,0,0,1,2.58,2.28,7,7,0,0,1,.89,3.6v0a10.22,10.22,0,0,1-.61,3.46,10.75,10.75,0,0,1-1.7,3.1l-6.29,7.94h8.74v4.64H526.68Z" transform="translate(-450.43 -136.08)"/><path class="cls-10" d="M547.62,242a7.15,7.15,0,0,1-2-5.33V225.08a7.1,7.1,0,0,1,2-5.35,9.45,9.45,0,0,1,11.38,0,7.12,7.12,0,0,1,2,5.36V236.7a7.15,7.15,0,0,1-2,5.35,7.86,7.86,0,0,1-5.69,1.91A7.75,7.75,0,0,1,547.62,242Zm7.84-3.71a5,5,0,0,0,.68-2.85v-9.16a5.08,5.08,0,0,0-.68-2.86,2.44,2.44,0,0,0-2.15-1,2.41,2.41,0,0,0-2.14,1,5,5,0,0,0-.69,2.86v9.16a5,5,0,0,0,.69,2.85,2.4,2.4,0,0,0,2.14,1A2.43,2.43,0,0,0,555.46,238.32Z" transform="translate(-450.43 -136.08)"/><path class="cls-10" d="M576.88,211.12a6.77,6.77,0,0,1-2.88-2.46,7.42,7.42,0,0,1-1.18-3.85h5a3.22,3.22,0,0,0,.46,1.35,2.39,2.39,0,0,0,.92.84,2.87,2.87,0,0,0,1.31.29,2.8,2.8,0,0,0,2.11-.76,3,3,0,0,0,.75-2.16v-.59a3.57,3.57,0,0,0-.61-2.25,2,2,0,0,0-1.73-.8h-2.16v-4.64H581a1.66,1.66,0,0,0,1.42-.69,3.29,3.29,0,0,0,.5-1.94V193a2.75,2.75,0,0,0-.55-1.82,1.94,1.94,0,0,0-1.56-.64,2.25,2.25,0,0,0-1.19.33,2.73,2.73,0,0,0-.9,1,4.59,4.59,0,0,0-.53,1.53h-5a9.12,9.12,0,0,1,1.26-4,7,7,0,0,1,2.73-2.58,8,8,0,0,1,3.77-.89,7.39,7.39,0,0,1,5.24,1.73,6.39,6.39,0,0,1,1.86,4.92v.77a5.2,5.2,0,0,1-3.45,5.06,4.53,4.53,0,0,1,2.86,1.94,6.8,6.8,0,0,1,1,3.85v.77a7.67,7.67,0,0,1-.88,3.81,5.72,5.72,0,0,1-2.57,2.41A9.16,9.16,0,0,1,581,212,9.59,9.59,0,0,1,576.88,211.12Z" transform="translate(-450.43 -136.08)"/><path class="cls-10" d="M594.86,210a7.15,7.15,0,0,1-2-5.33V193.09a7.14,7.14,0,0,1,2-5.35,9.45,9.45,0,0,1,11.38,0,7.13,7.13,0,0,1,2,5.36v11.62a7.15,7.15,0,0,1-2,5.35,7.86,7.86,0,0,1-5.69,1.91A7.77,7.77,0,0,1,594.86,210Zm7.84-3.71a5,5,0,0,0,.69-2.85v-9.16a5,5,0,0,0-.69-2.86,2.81,2.81,0,0,0-4.28,0,5,5,0,0,0-.69,2.86v9.16a5,5,0,0,0,.69,2.85,2.79,2.79,0,0,0,4.28,0Z" transform="translate(-450.43 -136.08)"/><path class="cls-10" d="M635.9,203.35l7.87-17.19h5.45l-7.66,17H653v4.64H635.9Zm10.31-6.68H651v15.05h-4.82Z" transform="translate(-450.43 -136.08)"/><path class="cls-10" d="M658.68,210a7.15,7.15,0,0,1-1.95-5.33V193.09a7.1,7.1,0,0,1,2-5.35,9.45,9.45,0,0,1,11.38,0,7.12,7.12,0,0,1,1.95,5.36v11.62a7.11,7.11,0,0,1-2,5.35,7.84,7.84,0,0,1-5.69,1.91A7.75,7.75,0,0,1,658.68,210Zm7.84-3.71a5,5,0,0,0,.68-2.85v-9.16a5.1,5.1,0,0,0-.68-2.86,2.44,2.44,0,0,0-2.15-1,2.41,2.41,0,0,0-2.14,1,5,5,0,0,0-.69,2.86v9.16a5,5,0,0,0,.69,2.85,2.4,2.4,0,0,0,2.14,1A2.43,2.43,0,0,0,666.52,206.33Z" transform="translate(-450.43 -136.08)"/><path class="cls-10" d="M689.16,243.05a6.74,6.74,0,0,1-2.64-2.63,9.55,9.55,0,0,1-1.15-4.11v0h4.82v0a3.65,3.65,0,0,0,.86,2.19,2.44,2.44,0,0,0,1.88.78,2.42,2.42,0,0,0,2-.82,3.57,3.57,0,0,0,.69-2.34V234a3.78,3.78,0,0,0-.62-2.33,2.09,2.09,0,0,0-1.75-.81,3,3,0,0,0-1.77.52,2.8,2.8,0,0,0-1,1.48h-4.5V218.14h13.73v4.64h-8.91v4.51a3.73,3.73,0,0,1,1.49-.83,5.82,5.82,0,0,1,1.87-.31,6.21,6.21,0,0,1,3.4.91,5.69,5.69,0,0,1,2.15,2.68,10.93,10.93,0,0,1,.74,4.23v2.15a9.31,9.31,0,0,1-.89,4.23,6.06,6.06,0,0,1-2.57,2.68,8.37,8.37,0,0,1-4.08.93A7.46,7.46,0,0,1,689.16,243.05Z" transform="translate(-450.43 -136.08)"/><path class="cls-10" d="M706.92,242A7.15,7.15,0,0,1,705,236.7V225.08a7.1,7.1,0,0,1,2-5.35,9.45,9.45,0,0,1,11.38,0,7.12,7.12,0,0,1,2,5.36V236.7a7.11,7.11,0,0,1-2,5.35,9.39,9.39,0,0,1-11.38,0Zm7.84-3.71a5,5,0,0,0,.69-2.85v-9.16a5,5,0,0,0-.69-2.86,2.82,2.82,0,0,0-4.29,0,5.08,5.08,0,0,0-.68,2.86v9.16a5,5,0,0,0,.68,2.85,2.8,2.8,0,0,0,4.29,0Z" transform="translate(-450.43 -136.08)"/><path class="cls-10" d="M719.11,293a6,6,0,0,1-2.55-2.64,9,9,0,0,1-.88-4.17v0a13.46,13.46,0,0,1,.34-2.93,19,19,0,0,1,1-3.12c.07-.17.14-.35.22-.52s.15-.35.23-.51l5.19-11h5.45l-6.15,12.75-1.22-.64A3.12,3.12,0,0,1,722,278.9a4.08,4.08,0,0,1,2-.46,6.88,6.88,0,0,1,3.61.9,5.76,5.76,0,0,1,2.27,2.61,9.74,9.74,0,0,1,.79,4.12v0a9.42,9.42,0,0,1-.88,4.22A6.07,6.07,0,0,1,727.2,293a8.36,8.36,0,0,1-4.05.92A8.46,8.46,0,0,1,719.11,293Zm6-4.48a3,3,0,0,0,.69-2.12v0a3.78,3.78,0,0,0-.69-2.43,2.43,2.43,0,0,0-2-.86,2.36,2.36,0,0,0-2,.88,3.82,3.82,0,0,0-.7,2.43v0a3,3,0,0,0,.7,2.11,2.55,2.55,0,0,0,2,.73A2.58,2.58,0,0,0,725.13,288.51Z" transform="translate(-450.43 -136.08)"/><path class="cls-10" d="M736.63,292a7.15,7.15,0,0,1-2-5.33V275a7.14,7.14,0,0,1,2-5.36,9.47,9.47,0,0,1,11.38,0,7.12,7.12,0,0,1,2,5.36v11.62a7.11,7.11,0,0,1-2,5.35,9.39,9.39,0,0,1-11.38,0Zm7.84-3.71a5,5,0,0,0,.69-2.85v-9.16a5,5,0,0,0-.69-2.86,2.82,2.82,0,0,0-4.29,0,5,5,0,0,0-.68,2.86v9.16a5,5,0,0,0,.68,2.85,2.82,2.82,0,0,0,4.29,0Z" transform="translate(-450.43 -136.08)"/><path class="cls-10" d="M725.72,332.33,720,354.69h-5.22l5.55-20.92h-4.39v3.85h-4.82v-8.49h14.61Z" transform="translate(-450.43 -136.08)"/><path class="cls-10" d="M731.89,353a7.15,7.15,0,0,1-1.95-5.33V336.08a7.14,7.14,0,0,1,2-5.36,9.49,9.49,0,0,1,11.38,0,7.16,7.16,0,0,1,2,5.37V347.7a7.11,7.11,0,0,1-2,5.35,9.39,9.39,0,0,1-11.38,0Zm7.84-3.71a5.05,5.05,0,0,0,.68-2.86v-9.15a5.05,5.05,0,0,0-.68-2.86,2.82,2.82,0,0,0-4.29,0,5,5,0,0,0-.69,2.86v9.15a5,5,0,0,0,.69,2.86,2.82,2.82,0,0,0,4.29,0Z" transform="translate(-450.43 -136.08)"/><path class="cls-10" d="M586.74,419.15A4.15,4.15,0,0,1,585.6,416v-6.78a4.15,4.15,0,0,1,1.14-3.12,5.52,5.52,0,0,1,6.64,0,4.15,4.15,0,0,1,1.14,3.12V416a4.15,4.15,0,0,1-1.14,3.12,5.46,5.46,0,0,1-6.64,0Zm4.57-2.16a2.9,2.9,0,0,0,.4-1.67V410a2.87,2.87,0,0,0-.4-1.66,1.64,1.64,0,0,0-2.5,0,2.87,2.87,0,0,0-.4,1.66v5.34a2.9,2.9,0,0,0,.4,1.67,1.64,1.64,0,0,0,2.5,0Z" transform="translate(-450.43 -136.08)"/><path class="cls-10" d="M597.91,419.15a4.18,4.18,0,0,1-1.13-3.11v-6.78a4.15,4.15,0,0,1,1.14-3.12,5.52,5.52,0,0,1,6.64,0,4.15,4.15,0,0,1,1.14,3.12V416a4.12,4.12,0,0,1-1.15,3.12,5.46,5.46,0,0,1-6.64,0Zm4.58-2.16a3,3,0,0,0,.4-1.67V410a3,3,0,0,0-.4-1.66,1.42,1.42,0,0,0-1.25-.58,1.39,1.39,0,0,0-1.25.58,2.87,2.87,0,0,0-.4,1.66v5.34A2.9,2.9,0,0,0,600,417a1.39,1.39,0,0,0,1.25.58A1.42,1.42,0,0,0,602.49,417Z" transform="translate(-450.43 -136.08)"/><path class="cls-10" d="M609.09,419.15A4.15,4.15,0,0,1,608,416v-6.78a4.12,4.12,0,0,1,1.15-3.12,5.52,5.52,0,0,1,6.64,0,4.15,4.15,0,0,1,1.13,3.12V416a4.15,4.15,0,0,1-1.14,3.12,5.46,5.46,0,0,1-6.64,0Zm4.58-2.16a3,3,0,0,0,.39-1.67V410a3,3,0,0,0-.39-1.66,1.65,1.65,0,0,0-2.51,0,3,3,0,0,0-.4,1.66v5.34a3,3,0,0,0,.4,1.67,1.65,1.65,0,0,0,2.51,0Z" transform="translate(-450.43 -136.08)"/><path class="cls-10" d="M620.27,419.15a4.15,4.15,0,0,1-1.14-3.11v-6.78a4.15,4.15,0,0,1,1.14-3.12,5.52,5.52,0,0,1,6.64,0,4.15,4.15,0,0,1,1.14,3.12V416a4.15,4.15,0,0,1-1.14,3.12,5.46,5.46,0,0,1-6.64,0Zm4.57-2.16a2.9,2.9,0,0,0,.4-1.67V410a2.87,2.87,0,0,0-.4-1.66,1.64,1.64,0,0,0-2.5,0,2.87,2.87,0,0,0-.4,1.66v5.34a2.9,2.9,0,0,0,.4,1.67,1.64,1.64,0,0,0,2.5,0Z" transform="translate(-450.43 -136.08)"/><path class="cls-10" d="M630.49,417.59l5.12-6.73a4.17,4.17,0,0,0,.54-.92,2.59,2.59,0,0,0,.19-.89v0a1.14,1.14,0,0,0-.39-.93,1.67,1.67,0,0,0-1.11-.33,1.49,1.49,0,0,0-1.13.45,2.18,2.18,0,0,0-.52,1.3h-2.88a5.4,5.4,0,0,1,.67-2.4,3.89,3.89,0,0,1,1.56-1.53,4.8,4.8,0,0,1,2.28-.53,5.55,5.55,0,0,1,2.38.46,3.31,3.31,0,0,1,1.51,1.32,4.15,4.15,0,0,1,.52,2.11h0a5.93,5.93,0,0,1-.36,2,6,6,0,0,1-1,1.81l-3.67,4.64h5.1v2.7h-8.82Z" transform="translate(-450.43 -136.08)"/><path class="cls-10" d="M642.7,419.15a4.18,4.18,0,0,1-1.13-3.11v-6.78a4.15,4.15,0,0,1,1.14-3.12,5.52,5.52,0,0,1,6.64,0,4.15,4.15,0,0,1,1.14,3.12V416a4.12,4.12,0,0,1-1.15,3.12,5.46,5.46,0,0,1-6.64,0Zm4.58-2.16a3,3,0,0,0,.4-1.67V410a3,3,0,0,0-.4-1.66,1.42,1.42,0,0,0-1.25-.58,1.39,1.39,0,0,0-1.25.58,2.87,2.87,0,0,0-.4,1.66v5.34a2.9,2.9,0,0,0,.4,1.67,1.39,1.39,0,0,0,1.25.58A1.42,1.42,0,0,0,647.28,417Z" transform="translate(-450.43 -136.08)"/><path class="cls-10" d="M653.88,419.15a4.15,4.15,0,0,1-1.14-3.11v-6.78a4.12,4.12,0,0,1,1.15-3.12,5.51,5.51,0,0,1,6.63,0,4.15,4.15,0,0,1,1.14,3.12V416a4.15,4.15,0,0,1-1.14,3.12,5.46,5.46,0,0,1-6.64,0Zm4.57-2.16a2.9,2.9,0,0,0,.4-1.67V410a2.87,2.87,0,0,0-.4-1.66,1.64,1.64,0,0,0-2.5,0,2.87,2.87,0,0,0-.4,1.66v5.34A2.9,2.9,0,0,0,656,417a1.64,1.64,0,0,0,2.5,0Z" transform="translate(-450.43 -136.08)"/></g></svg>