<svg id="Layer_4" data-name="Layer 4" xmlns="http://www.w3.org/2000/svg" viewBox="0 0 98.91 77.75"><title>WindshieldFan</title><path d="M352.72,387.21a82.68,82.68,0,0,0-97.66,0,1.64,1.64,0,0,0-.41,2.09l21.21,35.58a1.51,1.51,0,0,0,1.12.75,1.65,1.65,0,0,0,1.3-.37,38.47,38.47,0,0,1,7.47-5.33,14.57,14.57,0,0,1-.2,11.44,26.91,26.91,0,0,0-2.37,11.1v5.31a1.64,1.64,0,0,0,2,1.16,1.62,1.62,0,0,0,1.16-1.16v-5.31a23.58,23.58,0,0,1,2.08-9.78,17.8,17.8,0,0,0,.21-14.15,38.81,38.81,0,0,1,12.77-3.06,25.55,25.55,0,0,0,1.4,3.87,14.57,14.57,0,0,1,0,12,27.08,27.08,0,0,0-2.38,11.1v5.31a1.65,1.65,0,0,0,3.19,0v-5.31a23.89,23.89,0,0,1,2.07-9.78,17.71,17.71,0,0,0,0-14.67,22.16,22.16,0,0,1-1-2.61,38.66,38.66,0,0,1,15.18,3.48c.06.16.13.31.2.46a14.65,14.65,0,0,1,0,12,26.91,26.91,0,0,0-2.37,11.1v5.31a1.64,1.64,0,0,0,2,1.16,1.62,1.62,0,0,0,1.16-1.16v-5.31a23.74,23.74,0,0,1,2.08-9.78,17.76,17.76,0,0,0,1-11.54,37,37,0,0,1,5.56,4.16,1.62,1.62,0,0,0,1.05.39h.25a1.65,1.65,0,0,0,1.12-.76l21.16-35.65A1.65,1.65,0,0,0,352.72,387.21Zm-22.44,34.42a42.13,42.13,0,0,0-7.87-5.08A22.83,22.83,0,0,1,321,408.5v-7.12l2.36,3.61a1.65,1.65,0,1,0,3.15-1,1.56,1.56,0,0,0-.5-.76l-5.27-8.08h0a1.55,1.55,0,0,0-.24-.27h-.08l-.21-.15h-.1a.67.67,0,0,0-.23-.1h-.1a2.16,2.16,0,0,0-.36,0,2.29,2.29,0,0,0-.37,0h-.1a1,1,0,0,0-.24.1h-.1l-.22.15h0a2,2,0,0,0-.23.27h0l-5.27,8.08a1.63,1.63,0,0,0,.46,2.19,1.51,1.51,0,0,0,.87.26,1.64,1.64,0,0,0,1.32-.72l2.36-3.61v7.12a26.42,26.42,0,0,0,.79,6.38,41.56,41.56,0,0,0-14.76-2.65,23.36,23.36,0,0,1-.3-3.73v-7.12L306,405a1.66,1.66,0,0,0,1.34.72,1.58,1.58,0,0,0,.86-.26,1.65,1.65,0,0,0,.46-2.19l-5.28-8.08a1.65,1.65,0,0,0-2.31-.35,1.45,1.45,0,0,0-.35.35l-5.27,8.08a1.64,1.64,0,0,0,2.15,2.49,1.61,1.61,0,0,0,.5-.76l2.36-3.61v7.12a24.65,24.65,0,0,0,.3,3.84,41.58,41.58,0,0,0-13.2,3.3,23.33,23.33,0,0,1-1.1-7.09v-7.17l2.36,3.61a1.64,1.64,0,0,0,1.32.72,1.51,1.51,0,0,0,.87-.26,1.64,1.64,0,0,0,.46-2.19l-5.27-8.08h0a1.65,1.65,0,0,0-2.31-.35,1.45,1.45,0,0,0-.35.35h0l-5.28,8.08a1.65,1.65,0,1,0,2,2.63,1.59,1.59,0,0,0,.6-.9l2.36-3.61v7.12a26.05,26.05,0,0,0,1.45,8.39,42.1,42.1,0,0,0-7.11,4.74l-19.39-32.77a79.43,79.43,0,0,1,91.56,0Z" transform="translate(-254.44 -371.25)"/></svg>