<svg id="Layer_4" data-name="Layer 4" xmlns="http://www.w3.org/2000/svg" xmlns:xlink="http://www.w3.org/1999/xlink" viewBox="0 0 395.67 233.67"><defs><style>.cls-1,.cls-12,.cls-13,.cls-14,.cls-3,.cls-4,.cls-5,.cls-6{stroke:#231f20;}.cls-1,.cls-10,.cls-12,.cls-13,.cls-14,.cls-2,.cls-3,.cls-4,.cls-5,.cls-6,.cls-7,.cls-8{stroke-miterlimit:10;}.cls-1{fill:url(#linear-gradient);}.cls-2{fill:none;stroke:#262262;}.cls-2,.cls-8{stroke-width:5px;}.cls-3{fill:#27aae1;}.cls-4{fill:#00a651;}.cls-5{fill:#1c75bc;}.cls-10,.cls-6{fill:#2e3192;}.cls-11,.cls-15,.cls-7,.cls-8{fill:#fff;}.cls-7,.cls-8{stroke:#00a651;}.cls-20,.cls-21,.cls-9{fill:#f1f2f2;}.cls-10{stroke:#27aae1;}.cls-12{fill:url(#radial-gradient);}.cls-13{fill:url(#radial-gradient-2);}.cls-14{fill:url(#radial-gradient-3);}.cls-15,.cls-16{font-size:18px;}.cls-15,.cls-16,.cls-17,.cls-18,.cls-19,.cls-20,.cls-21{font-family:AutomateOT-Bold, Automate OT;font-weight:700;}.cls-16{fill:#2b3990;}.cls-17{font-size:60px;}.cls-17,.cls-18,.cls-19{fill:#00aeef;}.cls-18{font-size:11px;}.cls-19{font-size:18.16px;}.cls-20{font-size:21px;}.cls-21{font-size:18.15px;}</style><linearGradient id="linear-gradient" x1="197.83" y1="233.17" x2="197.83" y2="0.5" gradientUnits="userSpaceOnUse"><stop offset="0" stop-color="#27aae1"/><stop offset="0.69" stop-color="#2e3192"/></linearGradient><radialGradient id="radial-gradient" cx="57.52" cy="105.62" r="51.11" gradientUnits="userSpaceOnUse"><stop offset="0" stop-color="#58595b"/><stop offset="0.87" stop-color="#414042"/></radialGradient><radialGradient id="radial-gradient-2" cx="57.52" cy="105.62" r="48.2" xlink:href="#radial-gradient"/><radialGradient id="radial-gradient-3" cx="56.06" cy="70.18" r="11.39" xlink:href="#radial-gradient"/></defs><rect class="cls-1" x="0.5" y="0.5" width="394.67" height="232.67" rx="5"/><rect class="cls-2" x="91.83" y="74.62" width="287.07" height="59.67" rx="5"/><rect class="cls-3" x="149.98" y="148.22" width="177.48" height="36.89" rx="5"/><rect class="cls-4" x="0.5" y="178.58" width="61.67" height="54.25" rx="4"/><rect class="cls-5" x="0.5" y="0.5" width="45.67" height="29.83" rx="4"/><rect class="cls-5" x="46.17" y="0.5" width="45.67" height="29.83" rx="4"/><rect class="cls-5" x="349.5" y="0.5" width="45.67" height="29.83" rx="4"/><rect class="cls-5" x="303.83" y="0.5" width="45.67" height="29.83" rx="4"/><rect class="cls-5" x="91.83" y="0.5" width="212" height="29.83" rx="4"/><rect class="cls-6" x="62.39" y="198.5" width="54" height="34.33" rx="4"/><rect class="cls-6" x="116.61" y="198.5" width="54" height="34.33" rx="4"/><rect class="cls-6" x="170.83" y="198.5" width="54" height="34.33" rx="4"/><rect class="cls-6" x="225.06" y="198.5" width="54" height="34.33" rx="4"/><rect class="cls-6" x="279.28" y="198.5" width="54" height="34.33" rx="4"/><rect class="cls-6" x="333.5" y="198.5" width="61.67" height="34.33" rx="4"/><path class="cls-7" d="M254,399.76A20.07,20.07,0,1,0,274,419.82,20.06,20.06,0,0,0,254,399.76Zm0,35.53a15.47,15.47,0,1,1,15.47-15.47A15.47,15.47,0,0,1,254,435.29Z" transform="translate(-222.63 -209.49)"/><rect class="cls-8" x="26.62" y="182.89" width="9.43" height="27.45"/><polygon class="cls-9" points="89.39 215.67 97.68 209.78 105.96 203.9 105.96 215.67 105.96 227.43 97.68 221.55 89.39 215.67"/><polygon class="cls-9" points="75.07 215.67 83.36 209.78 91.65 203.9 91.65 215.67 91.65 227.43 83.36 221.55 75.07 215.67"/><rect class="cls-9" x="283.15" y="422.37" width="23.53" height="5.58" transform="translate(-352.87 510.58) rotate(-90)"/><polygon class="cls-9" points="250.4 215.67 242.11 221.55 233.82 227.43 233.82 215.67 233.82 203.9 242.11 209.78 250.4 215.67"/><polygon class="cls-9" points="264.71 215.67 256.43 221.55 248.14 227.43 248.14 215.67 248.14 203.9 256.43 209.78 264.71 215.67"/><rect class="cls-9" x="478.37" y="422.37" width="23.53" height="5.58" transform="translate(692.65 -274.46) rotate(90)"/><polygon class="cls-9" points="208.4 215.67 197.83 222.03 187.26 228.4 187.26 215.67 187.26 202.94 197.83 209.3 208.4 215.67"/><circle class="cls-10" cx="150.66" cy="166.67" r="15.14"/><polygon class="cls-10" points="156.18 172.51 146.06 166.67 156.18 160.83 157.64 159.98 157.64 154.99 147.53 160.83 137.42 166.67 147.53 172.51 157.64 178.34 157.64 173.35 156.18 172.51"/><circle class="cls-10" cx="326.67" cy="166.67" r="15.14"/><polygon class="cls-10" points="321.15 160.83 331.26 166.67 321.15 172.51 319.68 173.35 319.68 178.34 329.79 172.51 339.91 166.67 329.79 160.83 319.68 154.99 319.68 159.98 321.15 160.83"/><rect class="cls-11" x="9.81" y="13.12" width="7.99" height="14.07"/><path class="cls-11" d="M241.73,222.6v14.08H255.8V222.6Zm12.46,8h-5v-5.87h5Z" transform="translate(-222.63 -209.49)"/><polygon class="cls-11" points="21.42 2.45 28.05 7.21 34.69 11.96 21.42 11.96 8.14 11.96 14.78 7.21 21.42 2.45"/><path class="cls-11" d="M298.28,216.55a11.33,11.33,0,0,1,.44,16.07l1.15.75a11.28,11.28,0,0,0,3.92-8.56,13.07,13.07,0,0,0-4.26-9.24Z" transform="translate(-222.63 -209.49)"/><path class="cls-11" d="M296.06,218.65a8.32,8.32,0,0,1,.32,11.82l.85.55a8.34,8.34,0,0,0,2.88-6.3,9.62,9.62,0,0,0-3.13-6.8Z" transform="translate(-222.63 -209.49)"/><path class="cls-11" d="M287.3,219.88h-5.47a1.68,1.68,0,0,0-1.68,1.68v6a1.68,1.68,0,0,0,1.68,1.68h5.57a8.63,8.63,0,0,0,7.2,3.88V215.84A8.62,8.62,0,0,0,287.3,219.88Z" transform="translate(-222.63 -209.49)"/><path class="cls-11" d="M552.83,212.84a9.47,9.47,0,1,0,9.47,9.47A9.48,9.48,0,0,0,552.83,212.84Zm0,16.51a7,7,0,1,1,7-7A7,7,0,0,1,552.83,229.35Z" transform="translate(-222.63 -209.49)"/><rect class="cls-11" x="537.04" y="230.75" width="9.68" height="5.49" rx="2.74" transform="translate(-229.02 242.07) rotate(-45)"/><path class="cls-11" d="M606.67,222.26c-1.91-3.63-6.94-4.86-10.39-5.28v-3.91l-7.36,4.25-7.36,4.25,7.36,4.25,7.36,4.25v-4.28c2.12-.63,4.62-1.09,5.66-.16,2.51,2.26-3.05,11-3.05,11S609.68,228,606.67,222.26Z" transform="translate(-222.63 -209.49)"/><circle class="cls-12" cx="57.52" cy="105.62" r="51.11"/><circle class="cls-13" cx="57.52" cy="105.62" r="48.2"/><rect class="cls-14" x="48.51" y="55.95" width="15.11" height="28.44" rx="5"/><rect class="cls-9" x="132.04" y="204.09" width="23.15" height="23.15" rx="4"/><text class="cls-15" transform="translate(97.15 20.11)">Radio</text><text class="cls-16" transform="translate(181.29 20.11)">XM</text><text class="cls-16" transform="translate(239.42 20.11)">Media</text><text class="cls-17" transform="translate(119.37 124.89)">106.7</text><text class="cls-18" transform="translate(296.76 124.06)"><tspan xml:space="preserve">Mhz    </tspan></text><text class="cls-18" transform="translate(339.91 124.06)">FM-1</text><text class="cls-19" transform="translate(23.33 50.64) scale(0.93 1)">Vol 22</text><text class="cls-20" transform="translate(205.59 173.07)">Fav 1</text><text class="cls-21" transform="translate(282.62 221.25)">Band</text><text class="cls-20" transform="translate(342.59 221.25)">Nav</text></svg>