<svg xmlns="http://www.w3.org/2000/svg" viewBox="0 0 328.44 331.31"><defs><style>.cls-1{fill:#09173b;stroke:#192551;}.cls-1,.cls-3,.cls-4,.cls-5,.cls-7{stroke-miterlimit:10;}.cls-2{fill:#37c0c6;}.cls-3{fill:#231f20;}.cls-3,.cls-4{stroke:#231f20;}.cls-4{fill:#022439;}.cls-5{fill:#130f35;stroke:#bcbec0;}.cls-6{fill:#f2fafd;}.cls-7{font-size:110px;fill:#db3a26;stroke:#f2653d;font-family:AutomateOT-Bold, Automate OT;font-weight:700;}</style></defs><g id="Layer_2" data-name="Layer 2"><ellipse class="cls-1" cx="164.22" cy="165.66" rx="163.72" ry="162.05"/><polygon class="cls-2" points="291.45 186.21 292.05 182.17 312.77 184.81 312.08 189.52 291.45 186.21"/><path class="cls-2" d="M751.55,356.71l1.37-3.85,19.84,6.55c-.51,1.5-1.06,3-1.59,4.48Z" transform="translate(-466.28 -146.81)"/><path class="cls-2" d="M741,378.8c.68-1.18,1.43-2.32,2.07-3.52l18.23,10.19c-.75,1.4-1.61,2.73-2.41,4.1Z" transform="translate(-466.28 -146.81)"/><path class="cls-2" d="M726.41,398.51c.89-1,1.86-2,2.69-3.08l16,13.46c-1,1.24-2.09,2.38-3.13,3.57Z" transform="translate(-466.28 -146.81)"/><path class="cls-2" d="M708.38,415.12c1.08-.84,2.21-1.61,3.23-2.52l13.16,16.23c-1.19,1-2.49,1.95-3.75,2.92Z" transform="translate(-466.28 -146.81)"/><path class="cls-2" d="M687.56,428c1.23-.6,2.46-1.17,3.64-1.86l9.85,18.42c-1.37.79-2.8,1.47-4.23,2.17Z" transform="translate(-466.28 -146.81)"/><path class="cls-2" d="M664.68,436.73c.66-.17,1.32-.33,2-.52l2-.62,6.16,20-2.26.71c-.76.22-1.53.41-2.3.62Z" transform="translate(-466.28 -146.81)"/><path class="cls-2" d="M640.54,441c1.36-.09,2.71-.28,4.07-.41l2.27,20.76c-1.58.16-3.15.37-4.73.48Z" transform="translate(-466.28 -146.81)"/><polygon class="cls-2" points="149.74 293.72 153.81 294.11 152.16 314.94 147.43 314.48 149.74 293.72"/><polygon class="cls-2" points="125.78 288.68 129.69 289.87 124.1 310 119.55 308.62 125.78 288.68"/><path class="cls-2" d="M569.49,426c1.21.63,2.39,1.31,3.62,1.9l-9.32,18.7c-1.43-.69-2.81-1.48-4.21-2.21Z" transform="translate(-466.28 -146.81)"/><path class="cls-2" d="M549.11,412.36c1.08.84,2.09,1.76,3.2,2.55l-12.68,16.6c-1.29-.92-2.48-2-3.72-3Z" transform="translate(-466.28 -146.81)"/><path class="cls-2" d="M531.67,395.14c.89,1,1.71,2.13,2.66,3.11l-15.58,13.91c-1.1-1.14-2.06-2.4-3.09-3.6Z" transform="translate(-466.28 -146.81)"/><path class="cls-2" d="M517.78,375c.67,1.19,1.29,2.4,2,3.54l-17.93,10.72c-.86-1.33-1.59-2.73-2.36-4.12Z" transform="translate(-466.28 -146.81)"/><polygon class="cls-2" points="41.72 205.71 42.33 207.66 43.04 209.57 23.4 216.69 22.58 214.46 21.86 212.19 41.72 205.71"/><path class="cls-2" d="M502.64,328.61c.11,1.36.4,2.7.59,4.05l-20.64,3.25c-.22-1.57-.54-3.13-.68-4.71Z" transform="translate(-466.28 -146.81)"/><polygon class="cls-2" points="35.62 157.29 35.43 161.38 14.55 160.71 14.77 155.96 35.62 157.29"/><polygon class="cls-2" points="39.51 133.11 38.51 137.07 18.14 132.46 19.3 127.84 39.51 133.11"/><path class="cls-2" d="M514.2,256.92c-.57,1.24-1.19,2.45-1.73,3.7l-19.12-8.41c.63-1.46,1.34-2.87,2-4.31Z" transform="translate(-466.28 -146.81)"/><path class="cls-2" d="M526.84,235.93c-.8,1.1-1.66,2.16-2.4,3.31l-17.18-11.88c.86-1.33,1.86-2.57,2.78-3.85Z" transform="translate(-466.28 -146.81)"/><path class="cls-2" d="M543.21,217.68c-1,.94-2.05,1.81-3,2.81l-14.64-14.9c1.09-1.15,2.31-2.18,3.46-3.26Z" transform="translate(-466.28 -146.81)"/><path class="cls-2" d="M562.72,202.86c-1.16.72-2.35,1.39-3.45,2.19L547.7,187.66c1.3-.92,2.67-1.72,4-2.56Z" transform="translate(-466.28 -146.81)"/><path class="cls-2" d="M584.67,192l-1.92.71c-.64.25-1.25.53-1.88.8l-8-19.28c.73-.31,1.45-.64,2.19-.92l2.23-.84Z" transform="translate(-466.28 -146.81)"/><path class="cls-2" d="M608.28,185.51c-1.35.18-2.68.51-4,.78L600,165.83c1.55-.31,3.1-.68,4.67-.9Z" transform="translate(-466.28 -146.81)"/><polygon class="cls-2" points="166.46 36.8 162.36 36.82 162.05 15.93 166.8 15.91 166.46 36.8"/><polygon class="cls-2" points="190.8 39.54 186.79 38.74 190.43 18.17 195.09 19.1 190.8 39.54"/><path class="cls-2" d="M680.45,193.65c-1.26-.51-2.51-1.06-3.78-1.55l7.49-19.5c1.48.57,2.93,1.2,4.4,1.8Z" transform="translate(-466.28 -146.81)"/><path class="cls-2" d="M702,205.27c-1.15-.74-2.25-1.55-3.43-2.24l11-17.72c1.37.8,2.66,1.73,4,2.59Z" transform="translate(-466.28 -146.81)"/><path class="cls-2" d="M721,220.76c-1-.94-1.9-2-2.94-2.84l14.19-15.33c1.2,1,2.28,2.2,3.42,3.3Z" transform="translate(-466.28 -146.81)"/><path class="cls-2" d="M736.75,239.55c-.78-1.12-1.51-2.28-2.36-3.35l16.83-12.37c1,1.24,1.83,2.58,2.74,3.88Z" transform="translate(-466.28 -146.81)"/><path class="cls-2" d="M748.64,261c-.53-1.26-1.06-2.51-1.68-3.73l18.87-9c.72,1.41,1.34,2.87,2,4.33Z" transform="translate(-466.28 -146.81)"/><path class="cls-2" d="M756.25,284.23c-.25-1.34-.61-2.66-1-4l20.23-5.2c.4,1.53.82,3.06,1.12,4.62Z" transform="translate(-466.28 -146.81)"/><polygon class="cls-2" points="293.05 161.75 292.82 157.66 313.67 156.37 313.93 161.11 293.05 161.75"/><path class="cls-3" d="M482.11,384a159.32,159.32,0,0,0,280.52,0Z" transform="translate(-466.28 -146.81)"/><path class="cls-4" d="M630.5,147.31C540.17,147.31,467,221.25,467,312.46S540.17,477.62,630.5,477.62,794,403.68,794,312.46,720.82,147.31,630.5,147.31Zm0,308.47c-78.38,0-141.92-64.17-141.92-143.32S552.12,169.15,630.5,169.15s141.91,64.16,141.91,143.31S708.88,455.78,630.5,455.78Z" transform="translate(-466.28 -146.81)"/><rect class="cls-5" x="107.58" y="253.79" width="101.03" height="25.26"/><path class="cls-6" d="M586.74,419.15A4.15,4.15,0,0,1,585.6,416v-6.78a4.15,4.15,0,0,1,1.14-3.12,5.52,5.52,0,0,1,6.64,0,4.15,4.15,0,0,1,1.14,3.12V416a4.15,4.15,0,0,1-1.14,3.12,5.46,5.46,0,0,1-6.64,0Zm4.57-2.16a2.9,2.9,0,0,0,.4-1.67V410a2.87,2.87,0,0,0-.4-1.66,1.64,1.64,0,0,0-2.5,0,2.87,2.87,0,0,0-.4,1.66v5.34a2.9,2.9,0,0,0,.4,1.67,1.64,1.64,0,0,0,2.5,0Z" transform="translate(-466.28 -146.81)"/><path class="cls-6" d="M597.91,419.15a4.18,4.18,0,0,1-1.13-3.11v-6.78a4.15,4.15,0,0,1,1.14-3.12,5.52,5.52,0,0,1,6.64,0,4.15,4.15,0,0,1,1.14,3.12V416a4.12,4.12,0,0,1-1.15,3.12,5.46,5.46,0,0,1-6.64,0Zm4.58-2.16a3,3,0,0,0,.4-1.67V410a3,3,0,0,0-.4-1.66,1.42,1.42,0,0,0-1.25-.58,1.39,1.39,0,0,0-1.25.58,2.87,2.87,0,0,0-.4,1.66v5.34A2.9,2.9,0,0,0,600,417a1.39,1.39,0,0,0,1.25.58A1.42,1.42,0,0,0,602.49,417Z" transform="translate(-466.28 -146.81)"/><path class="cls-6" d="M609.09,419.15A4.15,4.15,0,0,1,608,416v-6.78a4.12,4.12,0,0,1,1.15-3.12,5.52,5.52,0,0,1,6.64,0,4.15,4.15,0,0,1,1.13,3.12V416a4.15,4.15,0,0,1-1.14,3.12,5.46,5.46,0,0,1-6.64,0Zm4.58-2.16a3,3,0,0,0,.39-1.67V410a3,3,0,0,0-.39-1.66,1.65,1.65,0,0,0-2.51,0,3,3,0,0,0-.4,1.66v5.34a3,3,0,0,0,.4,1.67,1.65,1.65,0,0,0,2.51,0Z" transform="translate(-466.28 -146.81)"/><path class="cls-6" d="M620.27,419.15a4.15,4.15,0,0,1-1.14-3.11v-6.78a4.15,4.15,0,0,1,1.14-3.12,5.52,5.52,0,0,1,6.64,0,4.15,4.15,0,0,1,1.14,3.12V416a4.15,4.15,0,0,1-1.14,3.12,5.46,5.46,0,0,1-6.64,0Zm4.57-2.16a2.9,2.9,0,0,0,.4-1.67V410a2.87,2.87,0,0,0-.4-1.66,1.64,1.64,0,0,0-2.5,0,2.87,2.87,0,0,0-.4,1.66v5.34a2.9,2.9,0,0,0,.4,1.67,1.64,1.64,0,0,0,2.5,0Z" transform="translate(-466.28 -146.81)"/><path class="cls-6" d="M630.49,417.59l5.12-6.73a4.17,4.17,0,0,0,.54-.92,2.59,2.59,0,0,0,.19-.89v0a1.14,1.14,0,0,0-.39-.93,1.67,1.67,0,0,0-1.11-.33,1.49,1.49,0,0,0-1.13.45,2.18,2.18,0,0,0-.52,1.3h-2.88a5.4,5.4,0,0,1,.67-2.4,3.89,3.89,0,0,1,1.56-1.53,4.8,4.8,0,0,1,2.28-.53,5.55,5.55,0,0,1,2.38.46,3.31,3.31,0,0,1,1.51,1.32,4.15,4.15,0,0,1,.52,2.11h0a5.93,5.93,0,0,1-.36,2,6,6,0,0,1-1,1.81l-3.67,4.64h5.1v2.7h-8.82Z" transform="translate(-466.28 -146.81)"/><path class="cls-6" d="M642.7,419.15a4.18,4.18,0,0,1-1.13-3.11v-6.78a4.15,4.15,0,0,1,1.14-3.12,5.52,5.52,0,0,1,6.64,0,4.15,4.15,0,0,1,1.14,3.12V416a4.12,4.12,0,0,1-1.15,3.12,5.46,5.46,0,0,1-6.64,0Zm4.58-2.16a3,3,0,0,0,.4-1.67V410a3,3,0,0,0-.4-1.66,1.42,1.42,0,0,0-1.25-.58,1.39,1.39,0,0,0-1.25.58,2.87,2.87,0,0,0-.4,1.66v5.34a2.9,2.9,0,0,0,.4,1.67,1.39,1.39,0,0,0,1.25.58A1.42,1.42,0,0,0,647.28,417Z" transform="translate(-466.28 -146.81)"/><path class="cls-6" d="M653.88,419.15a4.15,4.15,0,0,1-1.14-3.11v-6.78a4.12,4.12,0,0,1,1.15-3.12,5.51,5.51,0,0,1,6.63,0,4.15,4.15,0,0,1,1.14,3.12V416a4.15,4.15,0,0,1-1.14,3.12,5.46,5.46,0,0,1-6.64,0Zm4.57-2.16a2.9,2.9,0,0,0,.4-1.67V410a2.87,2.87,0,0,0-.4-1.66,1.64,1.64,0,0,0-2.5,0,2.87,2.87,0,0,0-.4,1.66v5.34A2.9,2.9,0,0,0,656,417a1.64,1.64,0,0,0,2.5,0Z" transform="translate(-466.28 -146.81)"/><text class="cls-7" transform="translate(87.06 196.24)">98</text></g></svg>