<?xml version="1.0" encoding="utf-8"?>
<!-- Generator: Adobe Illustrator 24.0.3, SVG Export Plug-In . SVG Version: 6.00 Build 0) -->
<svg version="1.1" xmlns="http://www.w3.org/2000/svg" xmlns:xlink="http://www.w3.org/1999/xlink" x="0px" y="0px"
viewBox="0 0 640 480" style="enable-background:new 0 0 640 480;" xml:space="preserve">
<style type="text/css">
.st0{fill:url(#SVGID_1_);}
.st1{fill-rule:evenodd;clip-rule:evenodd;fill:none;}
.st2{font-family:‘NidusSans’;}
.st3{font-size:72.3px;}
.st4{fill:none;}
.st5{font-size:107px;}
.st6{font-size:57px;}
.st7{fill:none;stroke:#000000;stroke-width:3;stroke-miterlimit:10;}
.st8{font-size:36px;}
.st9{fill-rule:evenodd;clip-rule:evenodd;fill:#243E8E;stroke:#243E8E;stroke-width:0.75;stroke-miterlimit:10;}
.st10{fill-rule:evenodd;clip-rule:evenodd;fill:none;stroke:#000000;stroke-width:2;stroke-miterlimit:10;}
.st11{font-size:39px;}
.st12{font-size:28px;}
.st13{font-size:32px;}
</style>
<g id="Layer_2">
</g>
<g id="Layer_1">
<g>
<linearGradient id="SVGID_1_" gradientUnits="userSpaceOnUse" x1="0.125" y1="241.3506" x2="640.875" y2="241.3506">
<stop offset="0" style="stop-color:#B4FFF1"/>
<stop offset="1" style="stop-color:#C1FFB4"/>
</linearGradient>
<rect x="0.1" y="1.1" class="st0" width="640.8" height="480.5"/>
<path d="M640.8,1.2v480.2H0.2V1.2H640.8 M641,1H0v480.7h641V1L641,1z"/>
</g>
<rect x="27.1" y="12.2" class="st1" width="114.8" height="66.6"/>
<text transform="matrix(1 0 0 1 27.123 65.209)" class="st2 st3">AM</text>
<g>
<rect x="176.4" y="10.8" class="st4" width="114.8" height="66.6"/>
<text transform="matrix(1 0 0 1 176.3994 63.7661)" class="st2 st3">FM</text>
</g>
<rect x="438.1" y="125" class="st4" width="154.9" height="105"/>
<text transform="matrix(1 0 0 1 438.1084 203.4004)" class="st2 st5" id="volume_val">28</text>
<rect x="334.4" y="12.3" class="st1" width="114.8" height="66.6"/>
<text transform="matrix(1 0 0 1 334.4141 65.3237)" class="st2 st3">XM</text>
<rect x="23.4" y="127.1" class="st1" width="262.6" height="71.9"/>
<text transform="matrix(1 0 0 1 23.4426 168.8473)" class="st2 st6">12:30 am </text>
<path class="st7" d="M216.5,68.5"/>
<path class="st1" d="M161.4,9c-0.4,21.8-0.8,43.6-1.1,65.4"/>
<path class="st7" d="M146.5,0.3v58.2c0,8.5-6.2,15.5-13.8,15.5H-2"/>
<path class="st7" d="M302.6-1.9V58c0,8.8-7.2,16-16.1,16H130"/>
<path class="st7" d="M464.3-1v59.2c0,8.7-7.5,15.8-16.6,15.8H286"/>
<rect x="286.9" y="128.8" class="st4" width="190.9" height="36.8"/>
<text transform="matrix(1 0 0 1 286.8555 155.15)" class="st2 st8">Volume:</text>
<g>
<path class="st9" d="M516.7,6.6v25.7l-12.2-12.2l-1.9,1.9l13.3,13.3l-13.3,13.3l1.9,1.9l12.2-12.2v25.7l0,1.1L533,48.6l-13.4-13.4
L533,21.8L516.7,5.5L516.7,6.6z M519.4,12v19.7l9.9-9.9L519.4,12z M519.4,58.5V38.8l9.9,9.9L519.4,58.5L519.4,58.5z"/>
</g>
<path class="st7" d="M592,0v58.4c0,8.6-5.9,15.6-13.1,15.6H451"/>
<line class="st7" x1="640" y1="74" x2="518.2" y2="74"/>
<rect x="40.5" y="225.5" class="st10" width="165" height="150"/>
<rect x="62.1" y="257.4" class="st1" width="122.2" height="94.6"/>
<text transform="matrix(1 0 0 1 62.0654 286.001)"><tspan x="0" y="0" class="st2 st11">Album </tspan><tspan x="0" y="46.8" class="st2 st11">Cover</tspan></text>
<rect x="224.8" y="249.3" class="st1" width="382.2" height="61.7"/>
<text transform="matrix(1 0 0 1 224.751 269.8086)"><tspan x="0" y="0" class="st2 st12">Never gonna Give you up</tspan><tspan x="0" y="33.6" class="st2 st12">Rick Astley</tspan></text>
<rect x="223.6" y="319" class="st4" width="213.5" height="32.7"/>
<text transform="matrix(1 0 0 1 223.6348 342.416)" class="st2 st13">0:23/3:06</text>
<g>
<path d="M580,422.5c-1.5-2-4.3-2.5-6.3-1c-1,0.7-1.6,1.8-1.8,3s0.1,2.4,0.8,3.4l10.9,15l-10.9,15c-1.5,2-1,4.9,1,6.3
c0.8,0.6,1.7,0.9,2.7,0.9c1.4,0,2.8-0.6,3.7-1.9l14.6-20.1c0.1-0.2,0.1-0.4,0-0.6L580,422.5z"/>
<path d="M573.5,442.6l-14.6-20.1c-1.5-2-4.3-2.5-6.3-1c-1,0.7-1.6,1.8-1.8,3s0.1,2.4,0.8,3.4l10.9,15l-10.9,15c-1.5,2-1,4.9,1,6.3
c0.8,0.6,1.7,0.9,2.7,0.9c1.4,0,2.8-0.6,3.7-1.9l14.6-20.1C573.6,443,573.6,442.7,573.5,442.6z"/>
</g>
<g>
<path d="M33.4,444.9l10.9-15c0.7-1,1-2.2,0.8-3.4s-0.8-2.2-1.8-3c-2-1.5-4.9-1-6.3,1l-14.6,20.1c-0.1,0.2-0.1,0.4,0,0.6L37,465.2
c0.7,1,1.8,1.6,3,1.8c0.2,0,0.5,0.1,0.7,0.1c0.9,0,1.9-0.3,2.6-0.9c1-0.7,1.6-1.8,1.8-3s-0.1-2.4-0.8-3.4L33.4,444.9z"/>
<path d="M66.3,426.4c-0.2-1.2-0.8-2.2-1.8-3c-1-0.7-2.2-1-3.4-0.8c-1.2,0.2-2.2,0.8-3,1.8l-14.6,20.1c-0.1,0.2-0.1,0.4,0,0.6
l14.6,20.1c0.7,1,1.8,1.6,3,1.8c0.2,0,0.5,0.1,0.7,0.1c0.9,0,1.9-0.3,2.6-0.9c1-0.7,1.6-1.8,1.8-3c0.2-1.2-0.1-2.4-0.8-3.4
l-10.9-15l10.9-15C66.2,428.8,66.5,427.6,66.3,426.4z"/>
</g>
<path d="M323,426.9l3.8-4.3c1-1.1,0.8-2.8-0.3-3.7c-0.5-0.5-1.2-0.7-1.9-0.6c-0.7,0-1.3,0.4-1.8,0.9l-8.4,9.6
c-0.2,0.2-0.2,0.5-0.1,0.7l6.5,11c0.7,1.2,2.4,1.7,3.6,0.9c0.6-0.4,1-0.9,1.2-1.6c0.2-0.7,0.1-1.4-0.3-2l-3.3-5.5
c4,0.5,7.7,2.5,10.2,5.7c2.5,3.2,3.7,7.2,3.2,11.3c-0.5,4.1-2.5,7.7-5.7,10.3c-3.2,2.5-7.2,3.7-11.3,3.2c-4.1-0.5-7.7-2.5-10.3-5.7
c-5.3-6.7-4.1-16.3,2.5-21.6c0.6-0.4,0.9-1.1,1-1.8c0.1-0.7-0.1-1.4-0.6-2c-0.7-0.9-2-1.3-3.2-0.8c0,0-0.1,0-0.1,0.1
c-4.4,3.3-7.3,8.1-8.1,13.6c-0.8,5.5,0.6,10.9,3.9,15.3c3.3,4.4,8.1,7.3,13.6,8.1c1,0.1,2,0.2,3,0.2c4.4,0,8.7-1.4,12.3-4.1
c9.1-6.8,11-19.8,4.2-28.9C333.5,430.5,328.5,427.6,323,426.9z"/>
<path d="M463,451.7l-25.1,14.5c-1.2,0.7-2.6,1.1-4,1.1c-4.4,0-7.9-3.6-7.9-7.9v-29c0-1.4,0.4-2.8,1.1-4c1.4-2.5,4.1-4,6.9-4
c1.4,0,2.8,0.4,4,1.1l25.1,14.5c1.2,0.7,2.2,1.7,2.9,2.9C468.1,444.6,466.8,449.5,463,451.7z"/>
<path class="st7" d="M2.1,481.9l-0.2-60c0-8.8,14.8-16.1,33-16.1l322.4-1.2"/>
<path class="st7" d="M637.8,483.7l0.2-61.6c0-9-12-16.5-26.7-16.5l-261.1-1"/>
<path d="M208,466h-21c-6.6,0-12-5.4-12-12v-21c0-6.6,5.4-12,12-12h21c6.6,0,12,5.4,12,12v21C220,460.6,214.6,466,208,466z"/>
</g>
</svg>
