<svg xmlns="http://www.w3.org/2000/svg" viewBox="0 0 588.68 223.2"><defs><style>.cls-1{fill:#231f20;stroke:#ed1c24;}.cls-1,.cls-2,.cls-4{stroke-miterlimit:10;}.cls-2,.cls-3,.cls-4{fill:#ed1c24;}.cls-2,.cls-4{stroke:#231f20;}.cls-4{stroke-width:4px;}</style></defs><g id="Layer_3" data-name="Layer 3"><path class="cls-1" d="M30.65,85.07h82.63a26,26,0,0,1,26,26V196.7a26,26,0,0,1-26,26H27.65a26,26,0,0,1-26-26V114.07A29,29,0,0,1,30.65,85.07Z"/><path class="cls-1" d="M179.52,85.07h82.63a26,26,0,0,1,26,26V196.7a26,26,0,0,1-26,26H176.52a26,26,0,0,1-26-26V114.07A29,29,0,0,1,179.52,85.07Z"/><path class="cls-1" d="M329.54,85.07h82.63a26,26,0,0,1,26,26V196.7a26,26,0,0,1-26,26H326.54a26,26,0,0,1-26-26V114.07A29,29,0,0,1,329.54,85.07Z"/><path class="cls-1" d="M479.55,85.07h82.63a26,26,0,0,1,26,26V196.7a26,26,0,0,1-26,26H476.55a26,26,0,0,1-26-26V114.07A29,29,0,0,1,479.55,85.07Z"/><path class="cls-1" d="M479.55.5h82.63a26,26,0,0,1,26,26V47.63a26,26,0,0,1-26,26H476.55a26,26,0,0,1-26-26V29.5a29,29,0,0,1,29-29Z"/><path class="cls-1" d="M329.54.5h82.63a26,26,0,0,1,26,26V47.63a26,26,0,0,1-26,26H326.54a26,26,0,0,1-26-26V29.5A29,29,0,0,1,329.54.5Z"/><path class="cls-1" d="M179.52.5h82.63a26,26,0,0,1,26,26V47.63a26,26,0,0,1-26,26H176.52a26,26,0,0,1-26-26V29.5a29,29,0,0,1,29-29Z"/><path class="cls-1" d="M29.5.5h82.63a26,26,0,0,1,26,26V47.63a26,26,0,0,1-26,26H26.5a26,26,0,0,1-26-26V29.5a29,29,0,0,1,29-29Z"/><path class="cls-2" d="M417.87,345.15a30.5,30.5,0,1,0,30.5,30.5A30.5,30.5,0,0,0,417.87,345.15Zm0,53.16a22.67,22.67,0,1,1,22.67-22.66A22.67,22.67,0,0,1,417.87,398.31Z" transform="translate(-188.35 -231.83)"/><rect class="cls-2" x="367.03" y="402.82" width="31.15" height="17.67" rx="4" transform="translate(-367.37 159.28) rotate(-45)"/><path class="cls-2" d="M584,379.11c-5-9.59-18.33-12.84-27.45-13.94V354.83l-19.44,11.23-19.44,11.22,19.44,11.23,19.44,11.22V388.44c5.61-1.68,12.22-2.89,15-.42,6.63,6-8.06,28.94-8.06,28.94S592,394.3,584,379.11Z" transform="translate(-188.35 -231.83)"/><rect class="cls-3" x="348.06" y="15.77" width="42.58" height="42.58" rx="4"/><rect class="cls-2" x="485.95" y="145.01" width="22.99" height="40.51"/><path class="cls-2" d="M701,376.85v40.51h40.52V376.85ZM736.92,400H722.64V383.08h14.28Z" transform="translate(-188.35 -231.83)"/><polygon class="cls-2" points="519.37 114.29 538.47 127.99 557.57 141.69 519.37 141.69 481.16 141.69 500.27 127.99 519.37 114.29"/><path class="cls-4" d="M258.82,356.21A36.17,36.17,0,1,0,295,392.37,36.16,36.16,0,0,0,258.82,356.21Zm0,64.05a27.89,27.89,0,1,1,27.88-27.89A27.89,27.89,0,0,1,258.82,420.26Z" transform="translate(-188.35 -231.83)"/><rect class="cls-4" x="61.96" y="111.07" width="17" height="49.47"/><polygon class="cls-3" points="71.61 37.06 87.42 25.84 103.23 14.62 103.23 37.06 103.23 59.51 87.42 48.28 71.61 37.06"/><polygon class="cls-3" points="44.3 37.06 60.11 25.84 75.92 14.62 75.92 37.06 75.92 59.51 60.11 48.28 44.3 37.06"/><rect class="cls-3" x="204.89" y="263.58" width="44.88" height="10.64" transform="translate(-229.92 264.39) rotate(-90)"/><polygon class="cls-3" points="218.09 37.06 202.28 48.28 186.47 59.51 186.47 37.06 186.47 14.62 202.28 25.84 218.09 37.06"/><polygon class="cls-3" points="245.4 37.06 229.59 48.28 213.78 59.51 213.78 37.06 213.78 14.62 229.59 25.84 245.4 37.06"/><rect class="cls-3" x="416.63" y="263.58" width="44.88" height="10.64" transform="translate(519.62 -402.01) rotate(90)"/><polygon class="cls-3" points="539.57 37.06 523.75 48.28 507.94 59.51 507.94 37.06 507.94 14.62 523.75 25.84 539.57 37.06"/></g></svg>