<svg xmlns="http://www.w3.org/2000/svg" viewBox="0 0 465.85 332.5"><defs><style>.cls-1{fill:#231f20;stroke:#ed1c24;stroke-width:2px;}.cls-1,.cls-3,.cls-4{stroke-miterlimit:10;}.cls-2,.cls-3,.cls-4{fill:#ed1c24;}.cls-3,.cls-4{stroke:#231f20;}.cls-4{stroke-width:5px;}.cls-5{font-size:22.44px;font-family:MyriadPro-Regular, Myriad Pro;}.cls-5,.cls-8{fill:#fff;}.cls-6{letter-spacing:-0.03em;}.cls-7{letter-spacing:-0.04em;}</style></defs><g id="Layer_4" data-name="Layer 4"><rect class="cls-1" x="1" y="90.16" width="463.85" height="241.33" rx="8"/><rect class="cls-1" x="8.85" y="271.05" width="61.38" height="56.67" rx="8"/><rect class="cls-1" x="75.56" y="271.05" width="74.71" height="56.67" rx="8"/><rect class="cls-1" x="155.6" y="271.05" width="74.71" height="56.67" rx="8"/><rect class="cls-1" x="235.64" y="271.05" width="74.71" height="56.67" rx="8"/><rect class="cls-1" x="315.68" y="271.05" width="74.71" height="56.67" rx="8"/><rect class="cls-1" x="395.72" y="271.05" width="61.38" height="56.67" rx="8"/><rect class="cls-1" x="155.09" y="182.33" width="155.67" height="65" rx="8"/><rect class="cls-1" x="155.14" y="111.66" width="155.67" height="65" rx="8"/><circle class="cls-1" cx="76.64" cy="178.33" r="67.79"/><circle class="cls-1" cx="389.31" cy="178.33" r="67.79"/><polygon class="cls-2" points="113.42 299.38 124.65 291.42 135.88 283.44 135.88 299.38 135.88 315.33 124.65 307.36 113.42 299.38"/><polygon class="cls-2" points="94.02 299.38 105.25 291.42 116.48 283.44 116.48 299.38 116.48 315.33 105.25 307.36 94.02 299.38"/><rect class="cls-2" x="411.15" y="518.11" width="31.88" height="7.56" transform="translate(-431.65 726.47) rotate(-90)"/><polygon class="cls-2" points="98.84 129.57 90.28 135.65 81.71 141.73 81.71 129.57 81.71 117.41 90.28 123.49 98.84 129.57"/><polygon class="cls-2" points="50.88 129.57 59.45 123.49 68.02 117.41 68.02 129.57 68.02 141.73 59.45 135.65 50.88 129.57"/><rect class="cls-2" x="399.39" y="349.19" width="24.32" height="5.76" transform="translate(-277.37 541.12) rotate(-90)"/><polygon class="cls-2" points="413.29 129.57 404.72 135.65 396.15 141.73 396.15 129.57 396.15 117.41 404.72 123.49 413.29 129.57"/><polygon class="cls-2" points="365.33 129.57 373.9 123.49 382.46 117.41 382.46 129.57 382.46 141.73 373.9 135.65 365.33 129.57"/><rect class="cls-2" x="713.83" y="349.19" width="24.32" height="5.76" transform="translate(37.07 855.56) rotate(-90)"/><polygon class="cls-2" points="352.24 299.38 340.89 307.44 329.55 315.49 329.55 299.38 329.55 283.28 340.89 291.33 352.24 299.38"/><polygon class="cls-2" points="371.84 299.38 360.5 307.44 349.15 315.49 349.15 299.38 349.15 283.28 360.5 291.33 371.84 299.38"/><rect class="cls-2" x="696.4" y="518.07" width="32.21" height="7.63" transform="translate(897.55 -413.12) rotate(90)"/><polygon class="cls-2" points="287.52 299.38 275.53 307.89 263.54 316.4 263.54 299.38 263.54 282.37 275.53 290.88 287.52 299.38"/><rect class="cls-3" x="179.04" y="285.78" width="27.84" height="27.84" rx="4"/><rect class="cls-3" x="409" y="297.15" width="11.97" height="21.1"/><path class="cls-3" d="M759.78,519.65v21.1h21.1v-21.1Zm18.68,12.06H771V522.9h7.44Z" transform="translate(-336.85 -222.5)"/><polygon class="cls-3" points="426.41 281.15 436.36 288.29 446.31 295.42 426.41 295.42 406.51 295.42 416.46 288.29 426.41 281.15"/><path class="cls-3" d="M376.39,505.7a19.84,19.84,0,1,0,19.83,19.84A19.84,19.84,0,0,0,376.39,505.7Zm0,35.13a15.29,15.29,0,1,1,15.29-15.29A15.29,15.29,0,0,1,376.39,540.83Z" transform="translate(-336.85 -222.5)"/><rect class="cls-4" x="34.88" y="275.9" width="9.32" height="27.13"/><text class="cls-5" transform="translate(162.28 168.28)"><tspan class="cls-6">V</tspan><tspan x="11.78" y="0">olume:</tspan></text><text class="cls-5" transform="translate(59.11 186.54)"><tspan class="cls-6">V</tspan><tspan x="11.78" y="0">ol</tspan></text><text class="cls-5" transform="translate(207.32 18.78)"><tspan class="cls-7">T</tspan><tspan x="10.14" y="0">une</tspan></text><text class="cls-5" transform="translate(162.37 239.16)">Channel:</text><path class="cls-8" d="M599.16,388.58a9.79,9.79,0,0,1-2.47-7.12V366a9.81,9.81,0,0,1,2.48-7.14c1.66-1.7,4.08-2.54,7.25-2.54s5.6.84,7.25,2.53,2.47,4.07,2.47,7.15v15.49a9.78,9.78,0,0,1-2.48,7.14q-2.49,2.53-7.24,2.54T599.16,388.58Zm11-3.31a5.49,5.49,0,0,0,1.2-3.81V366a5.52,5.52,0,0,0-1.19-3.81,6,6,0,0,0-7.5,0,5.48,5.48,0,0,0-1.2,3.81v15.49a5.45,5.45,0,0,0,1.21,3.81,6,6,0,0,0,7.48,0Z" transform="translate(-336.85 -222.5)"/><path class="cls-8" d="M631.4,390.79h-4.78V361.91l-4.85,3v-4.95l4.85-3.23h4.78Z" transform="translate(-336.85 -222.5)"/><path class="cls-8" d="M598.68,459.71a9.81,9.81,0,0,1-2.47-7.13V437.09c0-3.06.82-5.44,2.48-7.13s4.07-2.55,7.24-2.55,5.61.85,7.26,2.53a9.84,9.84,0,0,1,2.47,7.15v15.49q0,4.6-2.49,7.14c-1.65,1.7-4.07,2.54-7.24,2.54S600.33,461.41,598.68,459.71Zm11-3.32a5.43,5.43,0,0,0,1.21-3.81V437.09a5.51,5.51,0,0,0-1.2-3.81,6,6,0,0,0-7.5,0,5.56,5.56,0,0,0-1.19,3.81v15.49a5.48,5.48,0,0,0,1.2,3.81,5.92,5.92,0,0,0,7.48,0Z" transform="translate(-336.85 -222.5)"/><path class="cls-8" d="M630.92,461.91h-4.78V433l-4.86,3v-4.94l4.86-3.24h4.78Z" transform="translate(-336.85 -222.5)"/><path class="cls-8" d="M515.83,328a4,4,0,0,1-1.56-1.67,5.51,5.51,0,0,1-.55-2.5v-3.51a5.51,5.51,0,0,1,.55-2.5,4.09,4.09,0,0,1,1.56-1.68,4.57,4.57,0,0,1,2.34-.59,4.45,4.45,0,0,1,2,.47,4.28,4.28,0,0,1,1.54,1.33,5.06,5.06,0,0,1,.84,2h-1.84a2.8,2.8,0,0,0-.55-1.07,2.68,2.68,0,0,0-.92-.73,2.48,2.48,0,0,0-1.09-.25,2.41,2.41,0,0,0-1.37.38,2.45,2.45,0,0,0-.92,1.06,3.71,3.71,0,0,0-.32,1.58v3.51a3.74,3.74,0,0,0,.32,1.58,2.45,2.45,0,0,0,.92,1.06,2.49,2.49,0,0,0,1.37.37,2.73,2.73,0,0,0,1.09-.23,2.62,2.62,0,0,0,.92-.71,2.76,2.76,0,0,0,.55-1.11h1.84a5.06,5.06,0,0,1-.84,2,4.32,4.32,0,0,1-3.56,1.8A4.47,4.47,0,0,1,515.83,328Z" transform="translate(-336.85 -222.5)"/><path class="cls-8" d="M526.74,324.92a2.09,2.09,0,0,0,.48,1.48,1.81,1.81,0,0,0,1.38.53,1.87,1.87,0,0,0,1.36-.47,1.73,1.73,0,0,0,.49-1.33l.12,1.91a2.58,2.58,0,0,1-2.47,1.59,2.86,2.86,0,0,1-2.33-1,4.11,4.11,0,0,1-.83-2.74v-5.54h1.8Zm3.71-5.54h1.78v9.12h-1.78Z" transform="translate(-336.85 -222.5)"/><path class="cls-8" d="M536.66,328.47a5.31,5.31,0,0,1-1.32-.47,5.21,5.21,0,0,1-1.13-.79l1.06-1.31a6.13,6.13,0,0,0,1.47.84,4,4,0,0,0,1.44.28,3.11,3.11,0,0,0,1.6-.33,1.09,1.09,0,0,0,.53-1,.77.77,0,0,0-.29-.66,1.67,1.67,0,0,0-.72-.3c-.29-.05-.69-.09-1.22-.13h-.44a7,7,0,0,1-1.5-.26,2,2,0,0,1-1-.71,2.29,2.29,0,0,1-.41-1.48,3,3,0,0,1,.39-1.61,2.41,2.41,0,0,1,1.18-1,5.09,5.09,0,0,1,2-.32,6.61,6.61,0,0,1,1.36.13,5.69,5.69,0,0,1,1.23.39,5.88,5.88,0,0,1,1.14.65l-1.08,1.31a6.45,6.45,0,0,0-1.35-.66,4.32,4.32,0,0,0-1.3-.22,2.43,2.43,0,0,0-1.37.32,1.06,1.06,0,0,0-.46.93.66.66,0,0,0,.26.56,1.57,1.57,0,0,0,.66.24c.26,0,.64.08,1.12.11h.34a7.62,7.62,0,0,1,1.63.26,2.22,2.22,0,0,1,1.13.76,2.63,2.63,0,0,1,.45,1.66,3,3,0,0,1-.42,1.63,2.54,2.54,0,0,1-1.27,1,6.13,6.13,0,0,1-2.13.32A6.75,6.75,0,0,1,536.66,328.47Z" transform="translate(-336.85 -222.5)"/><path class="cls-8" d="M543.59,319.38h4.11V321h-4.11Zm1.45,8.55a2.74,2.74,0,0,1-.51-1.8v-9.41h1.79v9.42a.85.85,0,0,0,.13.52.46.46,0,0,0,.39.18h.86v1.7h-1A2,2,0,0,1,545,327.93Z" transform="translate(-336.85 -222.5)"/><path class="cls-8" d="M551.63,328.17a3.14,3.14,0,0,1-1.29-1.36,4.74,4.74,0,0,1-.44-2.15v-1.49a4.64,4.64,0,0,1,.44-2.12,3,3,0,0,1,1.29-1.34,4.71,4.71,0,0,1,4.06,0,3,3,0,0,1,1.29,1.34,4.77,4.77,0,0,1,.44,2.12v1.52a4.79,4.79,0,0,1-.44,2.13,3.12,3.12,0,0,1-1.29,1.35,4.71,4.71,0,0,1-4.06,0Zm3.48-1.83a2.4,2.4,0,0,0,.52-1.65v-1.52a2.36,2.36,0,0,0-.52-1.64,1.81,1.81,0,0,0-1.45-.58,1.85,1.85,0,0,0-1.46.58,2.4,2.4,0,0,0-.51,1.64v1.52a2.45,2.45,0,0,0,.51,1.65,1.85,1.85,0,0,0,1.46.59A1.82,1.82,0,0,0,555.11,326.34Z" transform="translate(-336.85 -222.5)"/><path class="cls-8" d="M560,319.38h1.79v9.12H560Zm5.45,3.59a2.14,2.14,0,0,0-.48-1.49,1.7,1.7,0,0,0-1.34-.53,1.87,1.87,0,0,0-1.36.47,1.73,1.73,0,0,0-.48,1.31l-.18-1.76a3.3,3.3,0,0,1,1.1-1.28,2.67,2.67,0,0,1,1.51-.44,2.94,2.94,0,0,1,1.63.43,2.68,2.68,0,0,1,1,1.27,5.08,5.08,0,0,1,.36,2v5.54h-1.79Zm5.45,0a2.1,2.1,0,0,0-.5-1.49A1.88,1.88,0,0,0,569,321a1.63,1.63,0,0,0-1.29.51,2.06,2.06,0,0,0-.46,1.44l-.36-1.76a3.56,3.56,0,0,1,1.14-1.4,2.65,2.65,0,0,1,1.56-.49,3.09,3.09,0,0,1,1.68.43,2.67,2.67,0,0,1,1.06,1.27,4.91,4.91,0,0,1,.37,2v5.54h-1.79Z" transform="translate(-336.85 -222.5)"/><path class="cls-8" d="M580.39,315.71h1.8V328.5h-1.8Zm.79,5.68h4.36a1.6,1.6,0,0,0,.9-.25,1.52,1.52,0,0,0,.61-.69,2.35,2.35,0,0,0,.22-1.05,2.31,2.31,0,0,0-.22-1,1.64,1.64,0,0,0-.6-.7,1.74,1.74,0,0,0-.91-.24h-4.36v-1.71h4.29a4,4,0,0,1,1.94.46,3.17,3.17,0,0,1,1.3,1.29,4,4,0,0,1,.46,1.94,3.92,3.92,0,0,1-.46,1.94,3.28,3.28,0,0,1-1.31,1.3,4,4,0,0,1-1.93.45h-4.29Zm3.48,1.31,1.78-.41,3.27,6.21h-2.13Z" transform="translate(-336.85 -222.5)"/><path class="cls-8" d="M592.08,327.93a2.61,2.61,0,0,1-.83-2.12,2.57,2.57,0,0,1,.76-2,3.42,3.42,0,0,1,2.32-.68h2.59l.12,1.44h-2.71a1.53,1.53,0,0,0-1.05.32,1.21,1.21,0,0,0-.34.95,1.18,1.18,0,0,0,.46,1,2.41,2.41,0,0,0,1.4.33,3.92,3.92,0,0,0,1.53-.22.71.71,0,0,0,.51-.68l.18,1.28a2,2,0,0,1-.58.61,2.48,2.48,0,0,1-.81.35,4,4,0,0,1-1,.12A3.86,3.86,0,0,1,592.08,327.93Zm4.76-5.21a2,2,0,0,0-.48-1.4,1.8,1.8,0,0,0-1.36-.49,3.56,3.56,0,0,0-1.07.16,3.32,3.32,0,0,0-.92.47l-1.31-.9a3.44,3.44,0,0,1,1.36-1,5,5,0,0,1,1.89-.34,4.42,4.42,0,0,1,1.94.39,2.82,2.82,0,0,1,1.23,1.16,3.76,3.76,0,0,1,.42,1.84v5.86h-1.7Z" transform="translate(-336.85 -222.5)"/><path class="cls-8" d="M602.45,328.22a2.77,2.77,0,0,1-1.08-1.27,5,5,0,0,1-.37-2v-2a5.1,5.1,0,0,1,.37-2,2.76,2.76,0,0,1,1-1.27,3,3,0,0,1,1.65-.43,2.74,2.74,0,0,1,1.48.42,3.14,3.14,0,0,1,1.09,1.19l-.19,1.86a2.13,2.13,0,0,0-.21-1,1.38,1.38,0,0,0-.61-.63,2,2,0,0,0-1-.22,1.72,1.72,0,0,0-1.37.56,2.24,2.24,0,0,0-.49,1.55v2a2.18,2.18,0,0,0,.49,1.53,1.74,1.74,0,0,0,1.37.54,1.93,1.93,0,0,0,1-.22,1.48,1.48,0,0,0,.61-.65,2.22,2.22,0,0,0,.21-1l.13,1.93a2.53,2.53,0,0,1-.9,1.13,2.45,2.45,0,0,1-1.52.46A3.2,3.2,0,0,1,602.45,328.22Zm4-12.5h1.8V328.5h-1.8Z" transform="translate(-336.85 -222.5)"/><path class="cls-8" d="M611,315.72h1.79v1.79H611Zm0,3.66h1.79v9.12H611Z" transform="translate(-336.85 -222.5)"/><path class="cls-8" d="M617,328.17a3,3,0,0,1-1.29-1.36,4.74,4.74,0,0,1-.44-2.15v-1.49a4.64,4.64,0,0,1,.44-2.12,2.94,2.94,0,0,1,1.29-1.34,4.71,4.71,0,0,1,4.06,0,3,3,0,0,1,1.28,1.34,4.64,4.64,0,0,1,.45,2.12v1.52a4.65,4.65,0,0,1-.45,2.13,3,3,0,0,1-1.28,1.35,4.71,4.71,0,0,1-4.06,0Zm3.48-1.83a2.45,2.45,0,0,0,.52-1.65v-1.52a2.41,2.41,0,0,0-.52-1.64A1.83,1.83,0,0,0,619,321a1.85,1.85,0,0,0-1.46.58,2.4,2.4,0,0,0-.51,1.64v1.52a2.45,2.45,0,0,0,.51,1.65,1.85,1.85,0,0,0,1.46.59A1.83,1.83,0,0,0,620.44,326.34Z" transform="translate(-336.85 -222.5)"/></g></svg>