<svg id="Layer_5" data-name="Layer 5" xmlns="http://www.w3.org/2000/svg" viewBox="0 0 105.57 105.57"><title>SeatHeatRight</title><path d="M320.72,193.26h-8.66a9.29,9.29,0,0,0-9.28,9.28v8.66a9.27,9.27,0,0,0,2.09,5.86,11.83,11.83,0,0,0-3.69,5.47l-15.1,42.86-10.64-.79a11.11,11.11,0,0,1,2.17-12.15l3.52,3.53V244.61H269.76l3.47,3.47a17.28,17.28,0,0,0-4.45,16l-9.66-.71a11.11,11.11,0,0,1,2.61-10.95l3.52,3.53V244.61H253.88l3.47,3.47a17.29,17.29,0,0,0-4.68,14.84l-9.73-.72a11.09,11.09,0,0,1,2.91-9.75l3.53,3.53V244.61H238l3.48,3.47a17.26,17.26,0,0,0-4.82,13.83,13.39,13.39,0,0,0-12.23,13.35v23.58h88.41L324,229.63a11.73,11.73,0,0,0-1.12-9.39,9.3,9.3,0,0,0,7.17-9v-8.66A9.29,9.29,0,0,0,320.72,193.26ZM318,228l-.08.22-10.34,64.45h-77V275.26a7.22,7.22,0,0,1,7.88-7.19,17,17,0,0,0,3.13,4.29,11.14,11.14,0,0,1,0,15.76L246,292.5a17.33,17.33,0,0,0,.66-23.82l8.43.62a16.76,16.76,0,0,0,2.43,3.06,11.15,11.15,0,0,1,0,15.76l4.38,4.38a17.35,17.35,0,0,0,1.69-22.57l8.24.61a18,18,0,0,0,1.59,1.82,11.15,11.15,0,0,1,0,15.76l4.38,4.38a17.35,17.35,0,0,0,2.52-21.34l10.08.75L307,224.55l0-.09a5.74,5.74,0,0,1,5.47-4A5.75,5.75,0,0,1,318,228Zm5.82-16.78a3.09,3.09,0,0,1-3.09,3.09h-8.66A3.09,3.09,0,0,1,309,211.2v-8.66a3.1,3.1,0,0,1,3.09-3.09h8.66a3.09,3.09,0,0,1,3.09,3.09Z" transform="translate(-224.43 -193.26)"/></svg>